<svg width="401" height="400" viewBox="0 0 401 400" fill="none" xmlns="http://www.w3.org/2000/svg">
<path d="M335.915 301.824L335.7 300.584L336.654 299.763C372.967 268.514 395.513 225.073 395.513 176.922C395.513 82.2774 308.514 5.11174 200.61 5.11174C92.722 5.11174 5.7074 82.2775 5.7074 176.922C5.7074 271.568 92.7071 348.748 200.61 348.748C214.786 348.748 228.724 347.468 242.027 344.941L242.759 344.802L243.427 345.133C250.347 348.563 276.63 361.341 306.919 370.872C322.064 375.638 338.148 379.571 353.274 381.132C367.884 382.641 381.411 381.916 392.302 377.753C392.241 377.118 391.975 376.34 391.387 375.358C390.45 373.795 388.861 371.998 386.66 369.895C384.475 367.808 381.807 365.531 378.797 362.985C378.513 362.744 378.226 362.501 377.936 362.256C375.173 359.921 372.167 357.379 369.085 354.621C355.486 342.447 340.055 325.736 335.915 301.824Z" fill="white" stroke="black" stroke-width="4.44028"/>
</svg>
