<?xml version="1.0" encoding="UTF-8" standalone="no"?>
<!-- Generator: Adobe Illustrator 27.5.0, SVG Export Plug-In . SVG Version: 6.00 Build 0)  -->

<svg
   version="1.1"
   id="Layer_1"
   x="0px"
   y="0px"
   viewBox="0 0 4000 4000"
   style="enable-background:new 0 0 4000 4000;"
   xml:space="preserve"
   sodipodi:docname="tygr_uvod.svg"
   inkscape:version="1.3 (0e150ed6c4, 2023-07-21)"
   xmlns:inkscape="http://www.inkscape.org/namespaces/inkscape"
   xmlns:sodipodi="http://sodipodi.sourceforge.net/DTD/sodipodi-0.dtd"
   xmlns="http://www.w3.org/2000/svg"
   xmlns:svg="http://www.w3.org/2000/svg"><defs
   id="defs112">&#10;	&#10;	&#10;&#10;				&#10;			&#10;				&#10;			&#10;				&#10;			&#10;				&#10;			&#10;				&#10;			&#10;				&#10;			</defs><sodipodi:namedview
   id="namedview112"
   pagecolor="#505050"
   bordercolor="#eeeeee"
   borderopacity="1"
   inkscape:showpageshadow="0"
   inkscape:pageopacity="0"
   inkscape:pagecheckerboard="0"
   inkscape:deskcolor="#505050"
   inkscape:zoom="0.19675"
   inkscape:cx="-3522.2363"
   inkscape:cy="2000"
   inkscape:window-width="1920"
   inkscape:window-height="1001"
   inkscape:window-x="2391"
   inkscape:window-y="-9"
   inkscape:window-maximized="1"
   inkscape:current-layer="g110" />&#10;<g
   id="g1"
   transform="translate(-10.165184,5.0825921)">&#10;		<rect
   style="fill:#d8d0ca"
   width="4000"
   height="4000"
   id="rect1"
   x="0"
   y="0" />&#10;	</g><g
   id="g111"
   transform="translate(-10.165184,5.0825921)">&#10;		<g
   id="g110"
   transform="translate(-5402.7954,25.412961)">&#10;			<g
   id="g2">&#10;				<path
   style="fill:#fd9d24"
   d="m 3424.237,1870.998 c -2.076,104.703 -28.452,212.219 -89.112,314.055 -3.119,5.196 -6.284,10.291 -9.6,15.34 -15.532,23.746 -33.255,45.813 -52.798,66.102 -90.891,94.509 -220.73,150.572 -349.674,161.704 -124.443,10.785 -248.145,-20.238 -335.381,-98.812 l 9.302,-165.317 c 80.111,42.21 153.096,63.436 218.21,68.087 h 0.096 c 16.625,1.189 32.76,1.285 48.347,0.398 56.209,-3.266 105.686,-19.593 147.896,-45.521 22.662,-13.904 43.243,-30.583 61.597,-49.532 30.977,-31.864 55.77,-70.118 73.927,-112.172 10.986,-25.283 19.593,-52.006 25.681,-79.516 4.948,-22.365 8.31,-45.324 9.947,-68.531 2.173,-30.625 1.432,-61.753 -2.378,-92.578 -2.424,-19.891 -6.138,-39.63 -11.137,-59.077 -5.292,-20.636 -12.019,-40.92 -20.188,-60.664 -5.438,-12.916 -11.429,-25.63 -18.107,-38.048 -5.346,-9.897 -10.784,-19.447 -16.424,-28.654 -11.036,-18.056 -22.712,-34.782 -34.837,-50.122 -19.447,-24.492 -40.225,-45.42 -62.1,-62.443 -81.835,-63.879 -178.722,-73.676 -277.136,-15.783 -219.893,129.291 -259.226,-68.43 -209.205,-141.863 135.63,-199.157 455.767,-173.279 636.469,-35.523 13.158,9.993 25.58,20.581 37.11,31.764 16.177,15.637 32.065,33.003 47.451,51.951 17.663,21.629 34.636,45.279 50.616,70.657 22.964,36.47 43.842,76.498 61.606,119.201 10.689,25.781 20.238,52.496 28.402,79.96 10.487,35.281 18.701,71.746 24.048,109.057 3.81,26.124 6.234,52.596 7.121,79.365 0.452,12.12 0.502,24.294 0.251,36.515"
   id="path1" />&#10;			</g>&#10;			<g
   id="g5">&#10;				<g
   id="g4">&#10;					<g
   id="g3">&#10;						<path
   style="fill:#fc7d27"
   d="m 3424.237,1870.998 c -2.076,104.703 -28.452,212.219 -89.112,314.055 -3.119,5.196 -6.284,10.291 -9.6,15.34 -15.532,23.746 -33.255,45.813 -52.798,66.102 -90.891,94.509 -220.73,150.572 -349.674,161.704 -124.443,10.785 -248.145,-20.238 -335.381,-98.812 l 9.302,-165.317 c 80.111,42.21 153.096,63.436 218.21,68.087 h 0.096 c 75.066,32.902 174.322,56.461 287.93,34.338 203.46,-39.584 311.132,-282.337 313.656,-511.377 3.81,26.124 6.234,52.596 7.121,79.365 0.451,12.12 0.501,24.294 0.25,36.515"
   id="path2" />&#10;					</g>&#10;				</g>&#10;			</g>&#10;			<g
   id="g6">&#10;				<path
   style="fill:#ffffff"
   d="m 3167.62,1292.542 c -73.681,45.873 -117.724,116.677 -143.524,176.952 -2.333,5.488 -4.523,10.885 -6.581,16.191 -81.826,-63.843 -178.736,-73.68 -277.164,-15.779 -186.095,109.446 -242.899,-15.413 -225.61,-100.893 3.151,-15.505 8.731,-29.683 16.419,-40.975 135.653,-199.139 455.753,-173.253 636.46,-35.496"
   id="path5" />&#10;			</g>&#10;			<g
   style="opacity:0.15"
   id="g8">&#10;				<g
   id="g7">&#10;					<path
   style="fill:#650000"
   d="m 3024.097,1469.496 c -2.333,5.484 -4.523,10.885 -6.582,16.191 -81.826,-63.847 -178.74,-73.68 -277.164,-15.779 -186.094,109.446 -242.899,-15.413 -225.61,-100.898 10.652,34.489 36.355,74.417 98.012,77.481 82.411,4.065 307.066,-164.924 411.344,23.005"
   id="path6" />&#10;				</g>&#10;			</g>&#10;			<g
   id="g9">&#10;				<path
   style="fill:#650000"
   d="m 3104.148,2332.899 c -6.184,0 -19.644,-70.909 -92.624,-145.87 22.662,-13.904 43.243,-30.579 61.602,-49.532 42.799,93.324 38.395,195.402 31.022,195.402"
   id="path8" />&#10;			</g>&#10;			<g
   id="g10">&#10;				<path
   style="fill:#650000"
   d="m 3325.525,2200.39 c -15.532,23.746 -33.255,45.818 -52.798,66.102 -57.989,-104.895 -135.525,-136.517 -134.189,-142.751 1.533,-7.221 107.471,10.739 186.987,76.649"
   id="path9" />&#10;			</g>&#10;			<g
   id="g11">&#10;				<path
   style="fill:#650000"
   d="m 3322.804,2093.313 c -5.196,3.664 -62.151,-52.248 -175.758,-67.982 10.99,-25.287 19.593,-52.006 25.685,-79.516 95.694,48.933 156.357,143.144 150.073,147.498"
   id="path10" />&#10;			</g>&#10;			<g
   id="g12">&#10;				<path
   style="fill:#650000"
   d="m 3424.237,1870.998 c -49.129,-10.144 -143.835,-25.781 -241.559,6.284 2.173,-30.625 1.432,-61.753 -2.378,-92.578 10.542,-1.583 22.415,-2.772 35.774,-3.759 89.56,-6.581 165.806,24.002 207.915,53.538 0.449,12.12 0.499,24.294 0.248,36.515"
   id="path11" />&#10;			</g>&#10;			<g
   id="g13">&#10;				<path
   style="fill:#650000"
   d="m 3392.82,1646.061 c -83.226,-5.543 -173.925,45.919 -223.653,79.562 -5.296,-20.632 -12.024,-40.92 -20.188,-60.659 58.532,-50.273 121.922,-79.365 214.46,-77.038 10.689,25.782 21.217,30.671 29.381,58.135"
   id="path12" />&#10;			</g>&#10;			<g
   id="g14">&#10;				<path
   style="fill:#650000"
   d="m 3302.813,1446.9 c -94.257,36.868 -156.458,106.931 -188.372,151.363 -11.036,-18.061 -22.708,-34.787 -34.833,-50.122 41.313,-68.979 99.055,-133.352 172.589,-171.898 17.663,21.624 34.636,45.274 50.616,70.657"
   id="path13" />&#10;			</g>&#10;			<g
   id="g15">&#10;				<path
   style="fill:#650000"
   d="m 2923.053,2428.198 c -124.443,10.785 -248.145,-20.238 -335.381,-98.812 l 9.303,-165.317 c 100.596,52.994 189.909,72.935 266.654,68.485 29.632,63.527 52.294,130.727 59.424,195.644"
   id="path14" />&#10;			</g>&#10;			<g
   id="g16">&#10;				<path
   style="fill:#650000"
   d="m 2874.591,2448.671 c -116.743,0 -222.71,-36.826 -299.17,-105.674 -7.51,-6.758 -8.115,-18.325 -1.353,-25.835 6.758,-7.515 18.33,-8.11 25.835,-1.353 86.958,78.301 216.836,111.108 356.377,90.029 155.43,-23.491 291.177,-109.536 363.115,-230.171 186.567,-312.859 37.837,-678.506 -127.363,-838.22 -97.388,-94.155 -259.131,-147.52 -402.559,-132.822 -74.619,7.656 -177.383,37.073 -243.198,133.73 -22.5,33.037 -23.501,98.311 8.921,132.957 33.569,35.874 96.035,29.783 175.894,-17.175 66.958,-39.377 137.114,-50.449 202.856,-32.039 82.886,23.213 156.553,91.047 213.032,196.167 93.564,174.141 66.328,404.028 -63.35,534.736 -55.532,55.981 -126.758,89.473 -205.977,96.855 -88.628,8.262 -185.928,-15.151 -289.209,-69.595 -8.94,-4.707 -12.363,-15.771 -7.651,-24.712 4.712,-8.936 15.776,-12.373 24.712,-7.651 182.778,96.333 343.354,88.999 452.148,-20.664 118.804,-119.751 143.35,-331.116 57.1,-491.65 -51.665,-96.147 -117.598,-157.786 -190.674,-178.254 -56.753,-15.891 -115.43,-6.35 -174.443,28.345 -129.688,76.274 -194.229,39.402 -221.152,10.637 -45.723,-48.857 -43.257,-133.313 -12.451,-178.55 58.364,-85.71 151.626,-137.419 269.707,-149.534 153.53,-15.762 327.012,41.68 431.724,142.915 96.826,93.608 174.18,237.002 206.919,383.574 27.896,124.9 37.778,312.981 -73.56,499.69 -77.485,129.937 -222.935,222.5 -389.072,247.607 -29.512,4.46 -58.662,6.657 -87.158,6.657 z"
   id="path15" />&#10;			</g>&#10;			<g
   id="g17">&#10;				<path
   style="fill:#fd9d24"
   d="m 1625.231,2689.402 c 0,0 -30.181,493.865 -173.577,569.274 -1.733,0.887 -3.462,1.779 -5.292,2.671 -115.291,55.221 -437.756,48.091 -422.316,-108.957 8.758,-89.062 102.471,-86.738 146.707,-106.533 1.486,-1.088 2.968,-2.278 4.404,-3.613 20.682,-18.651 35.578,-58.926 46.907,-112.661 4.898,-23.357 9.156,-49.285 12.916,-77.092 5.493,-40.92 9.948,-85.901 13.904,-132.808 2.968,-35.376 5.639,-71.896 8.315,-108.508 15.834,-217.762 30.479,-440.775 96.681,-473.627 z"
   id="path16" />&#10;			</g>&#10;			<g
   id="g18">&#10;				<path
   style="fill:#650000"
   d="m 1348.715,2926.223 c -0.146,12.568 -36.397,-11.585 -126.647,3.357 4.898,-23.353 9.152,-49.28 12.911,-77.088 51.709,28.252 113.836,64.131 113.736,73.731"
   id="path17" />&#10;			</g>&#10;			<g
   id="g19">&#10;				<path
   style="fill:#650000"
   d="m 1405.764,2719.684 c 0,8.909 -24.45,-20.485 -156.879,0 2.968,-35.377 5.639,-71.897 8.315,-108.513 63.33,28.508 148.564,95.698 148.564,108.513"
   id="path18" />&#10;			</g>&#10;			<g
   id="g20">&#10;				<path
   style="fill:#ffffff"
   d="m 1446.364,3261.365 c -55.867,26.735 -160.306,38.827 -251.378,26.428 -1.173,-0.204 -2.347,-0.357 -3.521,-0.51 -27.347,-3.98 -53.418,-10.153 -76.48,-18.826 -1.531,-0.562 -3.061,-1.174 -4.54,-1.786 -1.531,-0.612 -3.01,-1.225 -4.49,-1.837 -4.439,-1.837 -8.776,-3.826 -12.959,-5.918 -2.449,-1.224 -4.847,-2.449 -7.194,-3.775 -10.408,-5.714 -19.796,-12.143 -27.959,-19.286 -0.969,-0.867 -1.939,-1.735 -2.857,-2.602 -1.99,-1.837 -3.877,-3.724 -5.663,-5.663 -0.765,-0.816 -1.531,-1.633 -2.245,-2.5 -2.5,-2.806 -4.796,-5.714 -6.888,-8.725 -1.939,-2.704 -3.724,-5.561 -5.306,-8.469 -0.766,-1.377 -1.48,-2.755 -2.143,-4.133 -1.071,-2.194 -2.092,-4.439 -2.959,-6.684 -0.459,-1.173 -0.868,-2.295 -1.276,-3.469 -0.408,-1.173 -0.765,-2.347 -1.123,-3.521 -0.765,-2.398 -1.378,-4.847 -1.888,-7.347 -0.714,-3.265 -1.224,-6.633 -1.531,-10.102 -0.612,-6.479 -0.612,-13.214 0.102,-20.255 8.725,-89.082 102.449,-86.735 146.684,-106.531 1.48,-1.072 2.959,-2.245 4.388,-3.623 115.306,0.918 246.99,30.51 269.541,151.021 3.828,20.051 4.542,42.704 1.685,68.113 z"
   id="path19" />&#10;			</g>&#10;			<g
   id="g23">&#10;				<g
   id="g21">&#10;					<path
   style="fill:#fc7d27"
   d="m 1625.242,2689.425 c 0,0 -30.204,493.828 -173.572,569.236 -1.734,0.918 -3.469,1.786 -5.306,2.704 2.857,-25.408 2.143,-48.061 -1.684,-68.113 87.909,-82.092 73.725,-320.256 73.725,-320.256 0,0 -90.97,-73.418 -154.337,-200.052 -44.388,-88.725 -66.684,-236.633 -77.959,-364.49 13.928,-88.878 34.235,-154.286 67.755,-170.919 z"
   id="path20" />&#10;				</g>&#10;				<g
   style="opacity:0.15"
   id="g22">&#10;					<path
   style="fill:#650000"
   d="m 1446.364,3261.365 c -55.867,26.735 -160.306,38.827 -251.378,26.428 -1.173,-0.204 -2.347,-0.357 -3.521,-0.51 -27.347,-3.98 -53.418,-10.153 -76.48,-18.826 -1.531,-0.562 -3.061,-1.174 -4.54,-1.786 -1.531,-0.612 -3.01,-1.225 -4.49,-1.837 -4.439,-1.837 -8.776,-3.826 -12.959,-5.918 -2.449,-1.224 -4.847,-2.449 -7.194,-3.775 -10.408,-5.714 -19.796,-12.143 -27.959,-19.286 -0.969,-0.867 -1.939,-1.735 -2.857,-2.602 -1.99,-1.837 -3.877,-3.724 -5.663,-5.663 -0.765,-0.816 -1.531,-1.633 -2.245,-2.5 -2.5,-2.806 -4.796,-5.714 -6.888,-8.725 -1.939,-2.755 -3.724,-5.561 -5.306,-8.469 -0.766,-1.377 -1.48,-2.755 -2.143,-4.133 -1.071,-2.194 -2.092,-4.439 -2.959,-6.684 -0.459,-1.173 -0.868,-2.295 -1.276,-3.469 -0.408,-1.173 -0.765,-2.347 -1.123,-3.521 -0.714,-2.347 -1.327,-4.796 -1.837,-7.245 0,-0.051 -0.051,-0.051 -0.051,-0.102 -2.602,-4.898 -3.061,-8.163 -1.531,-10.102 14.286,-18.826 211.939,88.01 393.674,39.031 1.99,-0.51 3.623,-1.735 5.306,-2.653 7.857,-4.235 15.102,-9.592 21.734,-15.765 3.829,20.05 4.543,42.703 1.686,68.112 z"
   id="path21" />&#10;				</g>&#10;			</g>&#10;			<g
   id="g24">&#10;				<path
   style="fill:#650000"
   d="m 1357.585,2144.976 c -6.897,3.901 -12.742,10.35 -17.608,17.732 -4.866,7.441 -8.919,15.738 -12.358,24.405 -6.874,17.361 -11.837,35.898 -15.866,54.668 -8.109,37.609 -12.957,76.269 -17.137,114.998 -7.958,77.577 -12.591,155.859 -17.704,234.245 -5.264,78.405 -10.204,157.021 -19.342,235.81 -4.583,39.406 -10.345,78.826 -19.292,118.3 -4.564,19.73 -9.943,39.479 -17.691,59.187 -3.91,9.842 -8.425,19.689 -14.37,29.399 -5.946,9.632 -13.3,19.442 -24.309,27.529 l -0.192,0.142 c -0.988,0.727 -2.113,1.349 -3.192,1.816 -15.171,6.412 -28.942,9.207 -42.173,12.563 -13.204,3.16 -25.822,6.522 -37.512,10.807 -11.708,4.24 -22.447,9.545 -31.082,16.547 -8.685,6.934 -15.193,15.385 -19.465,25.328 -2.099,4.985 -3.828,10.24 -4.825,15.88 -1.166,5.571 -1.692,11.489 -1.861,17.105 -0.192,11.333 1.834,22.191 6.334,32.102 8.854,19.936 27.666,35.825 49.614,47.222 22.045,11.484 47.062,18.948 72.56,24.089 25.585,5.072 51.892,7.825 78.291,8.713 26.403,0.869 52.948,0.023 79.196,-2.712 26.22,-2.726 52.276,-7.263 76.978,-14.388 12.303,-3.595 24.299,-7.885 35.084,-13.236 2.808,-1.322 5.077,-2.74 7.45,-4.098 2.346,-1.45 4.647,-3.073 6.929,-4.743 4.491,-3.526 8.941,-7.277 13.044,-11.672 16.716,-17.219 30.021,-39.648 41.35,-62.997 22.337,-47.222 38.23,-98.785 51.023,-150.96 12.843,-52.276 22.232,-105.586 31.247,-159 l 26.23,-160.885 0.01,-0.087 c 0.745,-4.546 5.036,-7.638 9.582,-6.888 4.016,0.649 6.892,4.07 7.002,7.99 0.809,27.688 0,55.098 -1.537,82.572 -1.564,27.446 -4.002,54.837 -7.203,82.165 -6.494,54.645 -16.19,108.966 -28.736,162.897 -6.289,26.961 -13.497,53.803 -21.93,80.422 -8.512,26.609 -18.249,53.026 -30.757,78.684 -12.6,25.553 -27.286,50.909 -48.69,72.981 -5.255,5.548 -11.233,10.675 -17.512,15.513 -3.215,2.36 -6.522,4.656 -9.98,6.774 -3.531,2.063 -7.121,4.157 -10.492,5.744 -13.707,6.737 -27.551,11.576 -41.441,15.61 -27.785,7.981 -55.798,12.5 -83.866,15.294 -28.068,2.749 -56.223,3.476 -84.373,2.378 -28.146,-1.116 -56.301,-4.208 -84.241,-9.92 -27.89,-5.822 -55.729,-14.164 -82.151,-27.981 -13.145,-6.961 -25.983,-15.313 -37.448,-26.01 -11.503,-10.533 -21.574,-23.673 -28.26,-38.688 -6.773,-14.992 -9.728,-31.626 -9.367,-47.57 0.247,-8.008 1.02,-15.733 2.671,-23.522 1.473,-7.789 3.988,-15.601 7.254,-23.138 6.545,-15.134 17.375,-28.823 30.131,-38.766 12.778,-10.002 26.783,-17.023 40.604,-22.31 13.853,-5.383 27.684,-9.014 40.87,-12.765 13.112,-3.65 26.037,-7.199 35.948,-11.704 l -3.384,1.958 c 4.907,-3.558 9.874,-9.573 14.132,-16.643 4.308,-7.066 8.05,-15.129 11.356,-23.545 6.6,-16.895 11.603,-35.166 15.816,-53.717 8.392,-37.201 13.743,-75.702 18.527,-114.294 9.184,-77.335 14.924,-155.589 21.167,-233.916 6.412,-78.336 12.733,-156.924 24.025,-235.361 5.667,-39.205 12.582,-78.396 23.087,-117.171 5.443,-19.328 11.64,-38.638 20.581,-57.275 4.482,-9.303 9.678,-18.455 16.236,-27.016 6.632,-8.429 14.873,-16.515 25.63,-21.487 4.167,-1.926 9.106,-0.105 11.031,4.066 1.829,3.947 0.288,8.594 -3.426,10.707 z"
   id="path23" />&#10;			</g>&#10;			<g
   id="g25">&#10;				<path
   style="fill:#fd9d24"
   d="m 2861.846,2471.295 c -2.872,81.689 -28.85,160.862 -79.517,223.603 -147.201,182.234 -351.805,209.402 -642.698,219.592 -317.965,11.187 -572.586,-21.08 -712.171,-214.643 -186.442,-258.439 -100.299,-607.519 -100.299,-607.519 l 399.507,-57.943 198.612,-28.8 c 64.469,12.225 124.594,16.826 181.297,17.764 85.151,1.436 162.738,-5.392 236.418,-7.373 36.021,-0.942 71.106,-0.741 105.636,2.227 25.489,2.177 50.621,5.79 75.656,11.53 31.375,7.171 62.544,17.613 93.868,32.555 17.764,8.516 35.624,18.454 53.538,30.039 5.69,3.654 11.228,7.469 16.671,11.475 8.017,5.79 15.788,11.877 23.257,18.162 19.84,16.721 37.755,35.276 53.689,55.171 4.596,5.735 9.102,11.576 13.355,17.563 35.674,49.431 60.216,106.185 73.036,164.919 8.064,36.863 11.481,74.517 10.145,111.678"
   id="path24" />&#10;			</g>&#10;			<g
   id="g26">&#10;				<path
   style="fill:#650000"
   d="m 2618.155,2062.289 c -7.277,123.752 -115.982,249.732 -121.031,246.118 -5.196,-3.714 43.097,-146.364 27.167,-278.673 31.371,7.171 62.54,17.608 93.864,32.555"
   id="path25" />&#10;			</g>&#10;			<g
   id="g27">&#10;				<path
   style="fill:#650000"
   d="m 2778.669,2194.7 c -60.166,99.503 -187.778,165.509 -190.893,160.661 -3.32,-5.145 86.441,-110.987 123.848,-233.395 19.84,16.721 37.755,35.276 53.685,55.167 4.601,5.739 9.101,11.575 13.36,17.567"
   id="path26" />&#10;			</g>&#10;			<g
   id="g28">&#10;				<path
   style="fill:#650000"
   d="m 2448.634,2018.201 c 13.245,97.71 -88.083,286.019 -93.718,282.012 -5.543,-3.961 14.402,-92.62 -11.923,-284.235 36.021,-0.942 71.105,-0.74 105.641,2.223"
   id="path27" />&#10;			</g>&#10;			<g
   style="opacity:0.7"
   id="g31">&#10;				<g
   id="g30">&#10;					<g
   id="g29">&#10;						<path
   style="fill:#ffffff"
   d="m 2861.846,2471.295 c -0.741,21.125 -3.019,42.109 -6.929,62.69 0.499,-6.334 0.841,-12.664 1.088,-18.999 1.34,-37.16 -2.076,-74.815 -10.144,-111.678 -12.815,-58.734 -37.357,-115.488 -73.031,-164.919 -4.258,-5.987 -8.759,-11.827 -13.359,-17.567 -15.934,-19.886 -33.845,-38.446 -53.685,-55.167 -7.473,-6.284 -15.244,-12.371 -23.257,-18.162 -5.443,-4.006 -10.986,-7.816 -16.68,-11.48 -17.91,-11.576 -35.77,-21.523 -53.534,-30.035 -31.32,-14.942 -62.494,-25.384 -93.864,-32.555 -25.04,-5.74 -50.177,-9.353 -75.656,-11.535 -34.54,-2.964 -69.619,-3.165 -105.641,-2.223 -73.676,1.98 -151.262,8.809 -236.418,7.373 -56.703,-0.942 -116.823,-5.543 -181.297,-17.764 l -198.613,28.795 -399.503,57.943 c 0,0 -3.911,15.788 -8.265,43.198 5.886,-53.589 14.1,-86.885 14.1,-86.885 l 399.507,-57.943 198.612,-28.8 c 64.469,12.225 124.594,16.826 181.297,17.764 85.151,1.436 162.738,-5.392 236.418,-7.373 36.021,-0.942 71.106,-0.741 105.636,2.227 25.489,2.177 50.621,5.79 75.656,11.53 31.375,7.171 62.544,17.613 93.868,32.555 17.764,8.516 35.624,18.454 53.538,30.039 5.69,3.654 11.228,7.469 16.671,11.475 8.017,5.79 15.788,11.877 23.257,18.162 19.84,16.721 37.755,35.276 53.689,55.171 4.596,5.735 9.102,11.576 13.355,17.563 35.674,49.431 60.216,106.185 73.036,164.919 8.067,36.866 11.484,74.52 10.148,111.681"
   id="path28" />&#10;					</g>&#10;				</g>&#10;			</g>&#10;			<g
   id="g32">&#10;				<path
   style="fill:#ffffff"
   d="m 2861.826,2471.312 c -2.857,81.684 -28.826,160.868 -79.49,223.572 -147.194,182.246 -351.786,209.439 -642.705,219.593 -317.96,11.224 -572.603,-21.072 -712.196,-214.643 -186.429,-258.419 -100.255,-607.501 -100.255,-607.501 l 399.49,-57.959 102.959,181.123 c 0,0 -96.684,90.306 -86.071,236.735 2.092,29.082 8.418,60.408 20.612,93.674 11.684,31.939 28.725,65.664 52.551,100.919 39.031,57.704 178.419,86.429 346.378,81.429 69.235,-2.092 143.317,-9.898 217.245,-23.776 190.104,-35.665 379.135,-111.482 481.482,-233.166 z"
   id="path31" />&#10;			</g>&#10;			<g
   id="g35">&#10;				<g
   id="g33">&#10;					<path
   style="fill:#fc7d27"
   d="m 2088.1,2127.485 c -43.367,116.735 -220.409,225.51 -344.542,324.745 -10.612,-146.429 86.071,-236.735 86.071,-236.735 l -102.959,-181.123 198.623,-28.776 c 64.439,12.194 124.592,16.837 181.276,17.755 1.633,29.185 -3.418,63.675 -18.469,104.134 z"
   id="path32" />&#10;				</g>&#10;				<g
   style="opacity:0.15"
   id="g34">&#10;					<path
   style="fill:#650000"
   d="m 2861.826,2471.312 c -2.857,81.684 -28.826,160.868 -79.49,223.572 -147.194,182.246 -351.786,209.439 -642.705,219.593 -317.96,11.224 -572.603,-21.072 -712.196,-214.643 -186.429,-258.419 -100.255,-607.501 -100.255,-607.501 l 399.49,-57.959 102.959,181.123 c 0,0 -96.684,90.306 -86.071,236.735 -96.786,77.398 -161.429,148.98 -105.357,214.082 55.561,64.49 107.755,-66.888 125.969,-120.408 4.388,-12.959 6.786,-21.327 6.786,-21.327 l 351.429,106.072 c 0,0 15.255,49.439 40.714,97.602 20,37.806 46.378,74.898 76.531,86.582 53.265,20.612 159.49,11.377 165.919,-15.255 3.929,-16.072 -17.5,-51.174 -25.204,-95.102 -5,-28.622 -4.184,-61.02 13.265,-94.337 25.969,-49.592 283.776,-172.092 458.113,-250.51 8.063,36.834 11.481,74.487 10.103,111.681 z"
   id="path33" />&#10;				</g>&#10;			</g>&#10;			<g
   id="g36">&#10;				<path
   style="fill:#650000"
   d="m 2032.471,2934.838 c -249.502,0 -485.908,-38.535 -619.873,-224.277 -99.077,-137.378 -121.836,-299.404 -123.481,-411.138 -1.777,-120.557 19.404,-207.852 20.303,-211.509 2.422,-9.805 12.349,-15.786 22.139,-13.374 9.805,2.417 15.801,12.324 13.389,22.134 -0.84,3.413 -81.792,344.126 97.329,592.48 143.105,198.428 419.404,216.748 696.709,207.065 266.606,-9.351 482.217,-30.957 629.111,-212.822 62.388,-77.236 88.018,-184.98 70.327,-295.605 -18.804,-117.554 -83.208,-219.658 -176.694,-280.132 -128.721,-83.267 -253.237,-77.158 -397.427,-70.073 -99.941,4.912 -213.213,10.464 -342.417,-14.028 -9.927,-1.885 -16.45,-11.455 -14.566,-21.384 1.885,-9.922 11.421,-16.458 21.382,-14.565 124.946,23.694 231.128,18.476 333.804,13.435 150.493,-7.402 280.469,-13.774 419.097,75.894 102.183,66.099 172.51,177.295 192.949,305.078 19.331,120.85 -9.097,239.077 -77.988,324.37 -156.621,193.901 -380.234,216.719 -656.299,226.396 -36.016,1.264 -72.051,2.055 -107.794,2.055 z"
   id="path35" />&#10;			</g>&#10;			<g
   id="g37">&#10;				<path
   style="fill:#fd9d24"
   d="m 2050.763,3291.829 c -9.55,15.486 -19.694,26.669 -30.282,32.555 -105.394,58.734 -415.634,59.182 -410.045,-95.396 2.675,-73.63 48.887,-85.8 91.687,-104.108 1.884,-0.791 3.714,-1.583 5.543,-2.424 7.322,-21.523 13.803,-44.629 19.598,-69.669 5.488,-23.655 10.291,-49.084 14.544,-76.544 4.057,-26.325 7.574,-54.531 10.537,-84.863 3.023,-30.231 5.493,-62.64 7.524,-97.422 1.285,-21.523 2.374,-43.993 3.266,-67.442 1.285,-32.66 2.273,-67.245 2.918,-103.907 0.841,-45.128 1.239,-93.37 1.239,-145.129 l 353.534,144.384 c 39.287,211.033 0.049,556.554 -70.063,669.965"
   id="path36" />&#10;			</g>&#10;			<g
   id="g38">&#10;				<path
   style="fill:#650000"
   d="m 2050.763,2713.167 c 0,0 -163.876,-48.023 -287.628,13.346 1.285,-32.66 2.273,-67.241 2.918,-103.907 147.452,-13.657 265.779,49.943 284.71,90.561"
   id="path37" />&#10;			</g>&#10;			<g
   id="g39">&#10;				<path
   style="fill:#650000"
   d="m 2043.737,2896.535 c -3.664,-1.239 -167.329,-57.193 -291.388,-5.154 3.018,-30.231 5.488,-62.64 7.519,-97.427 118.31,-7.766 263.672,65.037 283.869,102.581"
   id="path38" />&#10;			</g>&#10;			<g
   id="g40">&#10;				<path
   style="fill:#650000"
   d="m 2007.385,3069.425 c 0,0 -149.314,-40.165 -280.123,-16.639 5.493,-23.655 10.291,-49.084 14.549,-76.543 149.441,4.116 232.392,50.401 265.574,93.182"
   id="path39" />&#10;			</g>&#10;			<g
   id="g41">&#10;				<path
   style="fill:#ffffff"
   d="m 2050.753,3291.824 c -9.541,15.51 -19.694,26.684 -30.255,32.551 -105.408,58.725 -415.664,59.184 -410.052,-95.408 0.051,-1.632 0.153,-3.163 0.255,-4.745 0.051,-1.122 0.153,-2.245 0.255,-3.367 5.663,-66.429 50,-78.367 91.174,-95.969 97.551,-1.327 251.123,11.173 317.807,94.949 15.765,19.795 26.633,43.519 30.816,71.989 z"
   id="path40" />&#10;			</g>&#10;			<g
   id="g44">&#10;				<g
   id="g42">&#10;					<path
   style="fill:#fc7d27"
   d="m 2050.753,3291.824 c -4.184,-28.469 -15.051,-52.194 -30.817,-71.99 72.857,-118.419 88.674,-424.695 88.827,-602.909 l 12.041,4.949 c 39.286,211.02 0.051,556.532 -70.051,669.95 z"
   id="path41" />&#10;				</g>&#10;				<g
   style="opacity:0.15"
   id="g43">&#10;					<path
   style="fill:#650000"
   d="m 2050.753,3291.824 c -9.541,15.51 -19.694,26.684 -30.255,32.551 -105.408,58.725 -415.664,59.184 -410.052,-95.408 0.051,-1.632 0.153,-3.163 0.255,-4.745 0.051,-1.122 0.153,-2.245 0.255,-3.367 53.265,90.714 293.113,88.521 373.419,37.755 13.163,-8.316 24.949,-21.582 35.561,-38.775 15.766,19.795 26.634,43.519 30.817,71.989 z"
   id="path42" />&#10;				</g>&#10;			</g>&#10;			<g
   id="g45">&#10;				<path
   style="fill:#650000"
   d="m 1775.581,2477.49 c 3.878,54.229 5.566,108.522 6.101,162.875 0.215,54.353 -0.768,108.774 -3.773,163.218 -2.854,54.444 -7.377,108.966 -15.12,163.378 -3.759,27.204 -8.877,54.33 -14.613,81.373 -6.11,27.002 -13.318,53.872 -22.196,80.358 l -0.073,0.215 c -1.752,5.218 -5.657,9.184 -10.341,11.219 -13.853,5.937 -27.222,10.547 -39.017,16.035 -11.832,5.47 -21.935,11.759 -29.454,19.708 -7.345,8.068 -12.244,17.947 -15.01,29.477 -2.753,11.283 -3.709,24.834 -2.753,36.108 2.118,23.165 14.942,43.28 35.006,57.902 19.909,14.736 44.981,24.514 70.932,30.913 26.047,6.439 53.273,9.755 80.619,10.931 27.359,1.125 54.933,0.105 82.155,-3.032 27.176,-3.169 54.193,-8.365 79.462,-16.675 6.284,-2.108 12.486,-4.345 18.418,-6.892 2.95,-1.285 5.891,-2.575 8.703,-3.993 1.441,-0.672 2.817,-1.4 4.176,-2.14 l 2.058,-1.093 1.399,-0.892 c 7.469,-4.679 15.45,-14.416 21.967,-25.136 13.259,-21.834 23.078,-47.757 31.38,-73.895 8.269,-26.294 14.937,-53.374 20.663,-80.706 11.544,-54.686 19.543,-110.425 24.766,-166.405 2.607,-27.995 4.532,-56.068 5.721,-84.159 0.627,-14.045 0.993,-28.1 1.253,-42.146 0.384,-14.05 0.553,-28.1 0.517,-42.146 0.224,-56.205 -1.441,-112.254 -5.882,-168.514 v -0.069 c -0.362,-4.596 3.069,-8.621 7.67,-8.983 4.02,-0.32 7.606,2.278 8.681,6.01 16.049,55.679 22.488,113.489 24.802,170.947 0.471,14.388 0.732,28.772 0.768,43.161 -0.077,14.379 -0.347,28.763 -0.841,43.134 -0.938,28.736 -2.625,57.44 -5.013,86.098 -4.83,57.298 -12.307,114.44 -23.883,171.139 -5.973,28.311 -12.934,56.516 -21.766,84.474 -8.996,27.931 -19.218,55.734 -35.491,82.622 -4.075,6.709 -8.772,13.336 -14.26,19.762 -5.525,6.398 -11.928,12.701 -20.311,17.983 l -3.138,1.916 -2.652,1.409 c -1.766,0.951 -3.531,1.875 -5.31,2.717 -3.545,1.774 -7.116,3.343 -10.684,4.884 -7.144,3.06 -14.329,5.635 -21.537,7.995 -28.845,9.298 -58.02,14.649 -87.31,17.928 -29.294,3.22 -58.729,4.153 -88.183,2.79 -29.44,-1.431 -58.944,-5.113 -88.092,-12.472 -29.015,-7.459 -58.19,-18.34 -84.149,-37.544 -6.426,-4.848 -12.6,-10.227 -18.322,-16.223 -5.671,-6.055 -10.858,-12.733 -15.299,-19.977 -9.037,-14.425 -14.311,-31.352 -15.962,-48.073 -1.308,-17.05 0.01,-32.216 3.915,-48.563 3.897,-16.062 11.905,-32.518 23.925,-45.384 11.864,-13.007 26.458,-21.885 40.238,-28.562 13.863,-6.801 27.24,-11.988 39.342,-17.659 l -10.409,11.434 c 8.182,-24.958 15.084,-50.447 20.869,-76.31 5.452,-25.96 10.359,-52.112 13.972,-78.597 7.739,-52.853 12.683,-106.377 16.488,-160.076 3.59,-53.721 6.334,-107.621 8.982,-161.603 2.886,-53.987 5.173,-108.065 9.275,-162.193 v -0.037 c 0.348,-4.592 4.349,-8.031 8.941,-7.679 4.176,0.315 7.401,3.653 7.684,7.715"
   id="path44" />&#10;			</g>&#10;			<g
   id="g46">&#10;				<path
   style="fill:#fd9d24"
   d="m 2479.67,1676.487 c -25.384,-5.241 -40.28,-6.975 -40.28,-6.975 0,0 7.821,241.019 -101.927,394.458 -12.618,17.613 -57.545,-36.717 -57.545,-36.717 0,0 -1.779,82.288 -15.637,112.817 -40.668,89.757 -167.146,105.787 -245.716,113.805 -12.024,1.239 -17.814,-47.652 -17.814,-47.652 0,0 -49.084,50.52 -64.822,50.126 -32.23,-0.787 -83.303,7.199 -136.393,18.006 -137.999,28.077 -280.091,28.104 -418.09,0.032 -53.2,-10.821 -104.392,-18.825 -136.654,-18.038 -15.738,0.393 -64.821,-50.126 -64.821,-50.126 0,0 -5.79,48.892 -17.814,47.652 -78.574,-8.018 -205.043,-24.048 -245.721,-113.805 -13.853,-30.529 -15.633,-112.817 -15.633,-112.817 0,0 -44.931,54.33 -57.549,36.717 -109.743,-153.439 -101.927,-394.458 -101.927,-394.458 0,0 -14.892,1.733 -40.28,6.975 0,-100.098 72.491,-207.815 72.491,-207.815 l -24.743,-21.377 c -44.135,-38.052 -64.817,-74.074 -64.817,-74.074 0,0 92.185,-22.758 138.543,-69.665 35.724,-36.172 70.763,-77.44 99.754,-118.904 28.503,-40.572 51.215,-81.341 63.234,-117.614 -73.475,-83.82 -73.429,-272.636 32.413,-343.193 104.799,-69.82 241.412,11.974 278.87,136.961 66.106,-21.327 195.594,-45.077 293.665,-45.077 98.122,0 227.362,23.751 293.469,45.077 37.458,-124.987 174.071,-206.781 278.87,-136.961 105.837,70.557 105.888,259.373 32.413,343.193 13.209,39.781 39.237,84.913 71.595,129.295 27.263,37.503 59.031,74.417 91.389,107.223 46.363,46.907 138.543,69.665 138.543,69.665 0,0 -20.682,36.022 -64.813,74.074 l -24.748,21.377 c 0,0 72.495,107.717 72.495,207.815"
   id="path45" />&#10;			</g>&#10;			<g
   id="g47">&#10;				<path
   style="fill:#ee7e80"
   d="m 1048.307,1014.272 c 70.172,-78.807 99.229,-71.041 145.783,-100.002 36.813,-22.895 -24.601,-133.992 -94.678,-133.942 -35.546,0.023 -117.733,48.023 -75.894,199.372 0,0 3.979,10.624 9.87,18.916 5.896,8.302 14.919,15.656 14.919,15.656"
   id="path46" />&#10;			</g>&#10;			<g
   id="g48">&#10;				<path
   style="fill:#ee7e80"
   d="m 2120.358,1014.272 c -70.173,-78.807 -99.229,-71.041 -145.783,-100.002 -36.813,-22.895 24.601,-133.992 94.673,-133.942 35.551,0.023 117.733,48.023 75.899,199.372"
   id="path47" />&#10;			</g>&#10;			<g
   id="g49">&#10;				<path
   style="fill:#ffffff"
   d="m 2479.688,1676.487 c -25.384,-5.246 -40.28,-6.975 -40.28,-6.975 0,0 7.821,241.014 -101.927,394.458 -12.619,17.608 -57.545,-36.721 -57.545,-36.721 0,0 -1.779,82.292 -15.637,112.817 -40.673,89.757 -167.146,105.792 -245.716,113.805 -12.024,1.24 -17.814,-47.648 -17.814,-47.648 0,0 -49.084,50.52 -64.822,50.122 -32.257,-0.791 -83.322,7.226 -136.416,18.016 -37.554,7.665 -75.455,13.208 -113.457,16.671 -31.869,2.922 -63.783,4.404 -95.748,4.404 h -0.101 c -31.96,0 -63.875,-1.482 -95.739,-4.404 -37.906,-3.462 -75.606,-9.005 -113.064,-16.625 -53.191,-10.835 -104.355,-18.852 -136.617,-18.061 -15.733,0.398 -64.817,-50.122 -64.817,-50.122 0,0 -5.79,48.887 -17.814,47.648 -78.574,-8.013 -205.048,-24.048 -245.72,-113.805 -13.854,-30.524 -15.633,-112.817 -15.633,-112.817 0,0 -44.931,54.33 -57.545,36.721 -109.748,-153.444 -101.932,-394.458 -101.932,-394.458 0,0 -14.896,1.729 -40.28,6.975 0,-100.102 72.491,-207.815 72.491,-207.815 l -24.743,-21.377 c -44.135,-38.052 -64.817,-74.074 -64.817,-74.074 0,0 92.181,-22.763 138.543,-69.669 35.724,-36.168 70.758,-77.436 99.754,-118.9 -57.398,173.129 -114.545,447.846 -19.497,704.648 69.619,187.924 290.747,248.488 463.583,266.256 124.392,12.865 223.749,3.513 223.749,3.513 h 0.151 c 4.354,0.398 102.178,9.051 223.895,-3.513 172.79,-17.814 393.717,-78.428 463.286,-266.256 92.926,-251.113 45.818,-519.344 -10.638,-692.971 27.263,37.508 59.031,74.417 91.389,107.223 46.363,46.907 138.543,69.669 138.543,69.669 0,0 -20.682,36.022 -64.817,74.074 l -24.743,21.377 c 0,-10e-4 72.495,107.712 72.495,207.814"
   id="path48" />&#10;			</g>&#10;			<g
   id="g50">&#10;				<path
   style="fill:#650000"
   d="m 886.74,1309.483 c -10.24,-2.323 -156.247,405.151 33.236,680.788 78.931,114.815 247.994,88.517 246.251,73.635 -1.742,-14.887 -124.978,-27.492 -210.696,-142.915 -48.366,-65.123 -72.043,-146.83 -80.33,-212.475 -29.111,-230.519 20.014,-397.112 11.539,-399.033"
   id="path49" />&#10;			</g>&#10;			<g
   id="g51">&#10;				<path
   style="fill:#650000"
   d="m 912.453,1520.516 c -8.411,1.587 -24.693,235.997 64.616,360.573 73.754,102.874 184.242,70.758 184.242,63.262 0,-9.678 -88.531,-10.661 -148.006,-97.939 -80.477,-118.1 -90.561,-327.831 -100.852,-325.896"
   id="path50" />&#10;			</g>&#10;			<g
   id="g52">&#10;				<path
   style="fill:#650000"
   d="m 2299.067,1309.483 c 10.235,-2.323 156.243,405.151 -33.241,680.788 -78.927,114.815 -247.989,88.517 -246.246,73.635 1.738,-14.887 124.978,-27.492 210.696,-142.915 48.361,-65.123 72.043,-146.83 80.33,-212.475 29.107,-230.519 -20.018,-397.112 -11.539,-399.033"
   id="path51" />&#10;			</g>&#10;			<g
   id="g53">&#10;				<path
   style="fill:#650000"
   d="m 2273.35,1520.516 c 8.415,1.587 24.693,235.997 -64.616,360.573 -73.749,102.874 -184.238,70.758 -184.238,63.262 0,-9.678 88.531,-10.661 148.001,-97.939 80.482,-118.1 90.567,-327.831 100.853,-325.896"
   id="path52" />&#10;			</g>&#10;			<g
   id="g54">&#10;				<path
   style="fill:#ffffff"
   d="m 1903.392,2053.973 c -19.991,40.028 -52.894,70.26 -89.213,101.584 -43.344,37.407 -91.49,76.397 -128.106,135.474 -31.864,2.923 -63.778,4.404 -95.743,4.404 l -0.05,-136.366 v -26.426 l 0.1,-266.201 c 140.967,-67.79 383.326,46.907 313.012,187.531"
   id="path53" />&#10;			</g>&#10;			<g
   id="g55">&#10;				<path
   style="fill:#ffffff"
   d="m 1590.28,2132.644 v 26.422 l -0.05,136.371 c -31.965,0 -63.879,-1.482 -95.743,-4.404 -36.666,-59.077 -84.762,-98.021 -128.106,-135.474 -36.269,-31.274 -69.221,-61.556 -89.263,-101.584 -70.31,-140.624 172.095,-255.32 313.062,-187.531 z"
   id="path54" />&#10;			</g>&#10;			<g
   id="g56">&#10;				<path
   style="fill:#650000"
   d="m 1636.724,903.372 c -12.651,122.591 -30.799,199.372 -46.33,199.372 -15.573,0 -33.721,-76.873 -46.376,-199.372 -2.616,-25.086 -1.395,-52.486 0.439,-82.105 28.269,-1.221 45.763,-1.441 45.763,-1.441 h 0.261 c 0,0 17.494,0.219 45.763,1.441 1.879,29.664 3.054,57.06 0.48,82.105"
   id="path55" />&#10;			</g>&#10;			<g
   id="g57">&#10;				<path
   style="fill:#650000"
   d="m 1700.16,2280.463 78.455,-14.434 19.58,-3.641 19.387,-4.409 c 13.126,-2.89 26.312,-5.621 39.598,-8.1 13.291,-2.474 26.678,-4.706 40.279,-6.471 6.81,-0.869 13.661,-1.637 20.65,-2.159 3.481,-0.297 7.021,-0.471 10.57,-0.636 l 5.397,-0.128 1.354,-0.023 c 0.361,-0.01 1.253,-0.01 0.581,-0.06 -0.302,-0.037 -0.714,0.027 -0.915,0.06 -0.059,-0.032 -0.119,-0.041 -0.174,-0.028 -0.128,0.05 0.288,-0.178 0.435,-0.21 l 1.143,-0.59 c 0.896,-0.49 1.921,-1.116 2.996,-1.797 2.177,-1.418 4.523,-3.16 6.86,-4.981 4.697,-3.686 9.44,-7.853 14.109,-12.138 9.294,-8.594 18.601,-17.988 27.19,-27.24 6.787,-7.304 18.212,-7.729 25.521,-0.947 2.968,2.758 4.802,6.275 5.479,9.98 l 0.288,1.587 v 0.01 c 1.056,8.228 2.666,17.306 4.743,25.027 1.011,3.837 2.342,7.597 3.384,9.641 0.32,0.938 1.253,1.308 -1.084,-0.686 l -0.48,-0.306 c -0.247,-0.183 -0.508,-0.352 -0.773,-0.503 -0.585,-0.348 -1.002,-0.48 -1.802,-0.819 -1.564,-0.599 -3.298,-0.896 -5.26,-0.869 -1.473,0.128 -0.585,0.068 -0.398,0.036 l 0.869,-0.087 1.738,-0.178 c 18.546,-1.912 36.84,-4.08 54.897,-6.993 36.003,-5.836 71.458,-14.452 102.846,-29.6 15.665,-7.528 30.062,-16.89 42.237,-28.128 6.023,-5.667 11.489,-11.795 16.291,-18.344 4.692,-6.522 8.804,-13.895 11.9,-20.91 2.547,-6.216 4.674,-14.755 6.179,-23.321 1.532,-8.64 2.808,-17.535 3.755,-26.577 1.935,-17.988 3.128,-36.625 3.655,-54.654 0.292,-10.126 8.74,-18.098 18.87,-17.805 5.392,0.16 10.181,2.634 13.428,6.444 l 0.091,0.105 c 5.836,6.906 12.642,14.192 19.292,20.403 3.357,3.133 6.769,6.065 10.057,8.493 3.174,2.447 6.705,4.382 7.903,4.729 0.595,0.306 -0.092,-0.444 -3.339,0.384 -1.647,0.403 -3.284,1.473 -4.327,2.507 -0.242,0.206 -0.467,0.439 -0.663,0.695 -0.156,0.178 -0.512,0.782 -0.197,0.293 l 1.02,-1.496 8.146,-11.987 7.629,-12.381 c 2.552,-4.116 4.784,-8.461 7.194,-12.678 18.642,-34.188 32.903,-71.096 43.669,-109.13 10.826,-38.034 18.44,-77.161 23.49,-116.659 2.516,-19.749 4.386,-39.598 5.658,-59.47 1.189,-19.744 1.921,-40.074 1.537,-59.169 l -0.01,-0.348 c -0.201,-10.044 7.775,-18.345 17.814,-18.55 0.851,-0.014 1.788,0.041 2.607,0.133 3.965,0.499 7.268,0.997 10.83,1.55 l 10.419,1.742 c 6.911,1.221 13.775,2.538 20.608,3.947 l -21.994,17.919 c -0.338,-16.986 -2.36,-34.183 -6.042,-51.307 -3.956,-17.092 -9.01,-34.082 -15.28,-50.78 -6.357,-16.671 -13.597,-33.095 -21.67,-49.148 -4.038,-8.022 -8.26,-15.966 -12.692,-23.76 -4.345,-7.743 -9.147,-15.697 -13.679,-22.644 l -0.147,-0.21 c -5.063,-7.775 -3.471,-17.961 3.375,-23.851 l 24.88,-21.468 c 7.853,-6.837 15.44,-13.981 22.69,-21.45 7.249,-7.464 14.16,-15.262 20.627,-23.339 3.238,-4.029 6.353,-8.141 9.349,-12.289 l 4.326,-6.252 c 1.331,-1.985 2.872,-4.386 3.755,-5.891 l 11.48,26.865 c -9.961,-2.589 -18.866,-5.346 -28.114,-8.438 -9.161,-3.028 -18.198,-6.435 -27.19,-10.012 -17.933,-7.29 -35.587,-15.669 -52.596,-26.005 l -6.367,-3.906 -6.234,-4.276 c -4.194,-2.744 -8.219,-5.909 -12.225,-9.12 -4.079,-3.028 -7.848,-6.746 -11.69,-10.277 l -2.85,-2.666 -2.47,-2.552 -4.939,-5.099 c -13.181,-13.597 -25.946,-27.579 -38.276,-41.944 -24.739,-28.663 -47.904,-58.743 -68.86,-90.626 -10.538,-15.893 -20.302,-32.413 -29.285,-49.509 -8.946,-17.119 -17.087,-34.86 -23.412,-53.767 -2.113,-6.321 -0.567,-12.989 3.499,-17.695 l 0.11,-0.124 c 17.837,-20.549 30.122,-46.993 37.659,-74.655 7.533,-27.762 10.506,-57.083 8.982,-86.011 -1.523,-28.905 -7.446,-57.6 -18.56,-83.697 -11.059,-26.056 -27.624,-49.376 -49.276,-66.006 -21.692,-16.794 -48.05,-26.792 -75.144,-27.872 -27.117,-1.221 -54.801,5.941 -79.516,19.301 -49.692,26.737 -87.785,75.519 -104.118,130.023 -2.9,9.682 -13.103,15.18 -22.781,12.28 l -0.174,-0.055 -0.187,-0.06 c -22.735,-7.19 -46.472,-13.057 -70.314,-18.221 -23.879,-5.145 -47.986,-9.541 -72.176,-13.277 -48.352,-7.354 -97.239,-12.541 -145.477,-12.683 -48.238,0.156 -97.129,5.356 -145.486,12.705 -24.19,3.732 -48.302,8.127 -72.18,13.268 -23.842,5.159 -47.579,11.023 -70.31,18.208 l -0.096,0.032 c -9.636,3.046 -19.923,-2.296 -22.969,-11.932 -0.018,-0.06 -0.064,-0.206 -0.082,-0.265 -16.332,-54.503 -54.426,-103.285 -104.113,-130.023 -24.716,-13.359 -52.404,-20.522 -79.521,-19.301 -27.089,1.079 -53.451,11.078 -75.139,27.872 -21.656,16.63 -38.217,39.95 -49.28,66.006 -11.109,26.097 -17.032,54.792 -18.555,83.697 -1.523,28.928 1.45,58.249 8.982,86.011 7.533,27.661 19.822,54.106 37.659,74.655 l 0.087,0.101 c 4.372,5.04 5.475,11.818 3.517,17.718 -6.325,18.907 -14.466,36.648 -23.408,53.767 -8.987,17.096 -18.752,33.616 -29.285,49.509 -20.961,31.882 -44.126,61.963 -68.86,90.626 -12.33,14.366 -25.095,28.347 -38.276,41.944 l -4.939,5.099 -2.47,2.552 -2.849,2.666 c -3.842,3.531 -7.61,7.249 -11.695,10.277 -4.002,3.211 -8.031,6.376 -12.225,9.12 l -6.229,4.276 -6.366,3.906 c -17.009,10.336 -34.663,18.715 -52.596,26.005 -8.996,3.577 -18.029,6.984 -27.19,10.012 -9.248,3.092 -18.157,5.85 -28.114,8.438 l 11.48,-26.865 c 0.878,1.505 2.424,3.906 3.75,5.891 l 4.331,6.252 c 2.991,4.148 6.11,8.26 9.349,12.289 6.472,8.077 13.373,15.875 20.622,23.339 7.254,7.469 14.841,14.613 22.69,21.45 l 24.885,21.468 c 7.021,6.056 8.315,16.291 3.375,23.847 l -0.146,0.215 c -4.528,6.948 -9.339,14.901 -13.68,22.644 -4.436,7.793 -8.653,15.738 -12.696,23.76 -8.068,16.053 -15.308,32.477 -21.67,49.148 -6.27,16.698 -11.32,33.689 -15.276,50.78 -3.686,17.124 -5.708,34.32 -6.046,51.307 l -21.994,-17.919 c 6.837,-1.409 13.698,-2.726 20.608,-3.947 l 10.419,-1.742 c 3.567,-0.554 6.87,-1.052 10.835,-1.55 9.966,-1.235 19.049,5.845 20.284,15.811 0.105,0.846 0.151,1.679 0.137,2.502 l -0.009,0.453 c -0.384,19.095 0.348,39.424 1.532,59.169 1.276,19.872 3.142,39.722 5.662,59.47 5.045,39.498 12.664,78.625 23.485,116.659 10.766,38.034 25.027,74.943 43.669,109.13 2.415,4.217 4.642,8.562 7.203,12.678 l 7.624,12.381 8.146,11.987 1.015,1.496 c 0.32,0.489 -0.037,-0.114 -0.192,-0.293 -0.197,-0.256 -0.421,-0.49 -0.668,-0.695 -1.038,-1.034 -2.676,-2.104 -4.322,-2.507 -3.247,-0.828 -3.938,-0.078 -3.339,-0.384 1.194,-0.348 4.729,-2.282 7.903,-4.729 3.284,-2.428 6.705,-5.36 10.053,-8.493 6.655,-6.211 13.46,-13.497 19.296,-20.403 l 0.041,-0.055 c 6.54,-7.734 18.116,-8.708 25.854,-2.168 4.125,3.485 6.33,8.475 6.495,13.478 0.521,18.029 1.72,36.662 3.654,54.65 0.947,9.038 2.218,17.933 3.755,26.573 1.5,8.566 3.632,17.101 6.174,23.321 3.092,7.016 7.203,14.388 11.891,20.906 4.807,6.549 10.268,12.678 16.291,18.349 12.175,11.233 26.563,20.599 42.223,28.123 31.384,15.148 66.834,23.769 102.833,29.609 18.057,2.914 36.346,5.082 54.888,6.989 l 1.738,0.183 0.869,0.087 0.434,0.046 c 0,0 0.288,0.037 0.073,0.01 l -0.7,-0.069 c -0.938,-0.064 -1.912,0.01 -2.813,0.183 -0.837,0.101 -1.678,0.311 -2.474,0.617 -0.869,0.375 -1.235,0.476 -1.839,0.819 -0.567,0.325 -1.057,0.691 -1.294,0.833 -2.392,2.003 -1.459,1.665 -1.148,0.732 1.043,-2.017 2.369,-5.781 3.385,-9.609 2.081,-7.729 3.686,-16.771 4.752,-25.045 l 0.01,-0.032 c 1.047,-9.979 9.989,-17.215 19.964,-16.163 4.048,0.421 7.647,2.145 10.423,4.715 l 0.896,0.828 c 9.005,8.315 18.569,16.844 27.931,24.711 4.697,3.951 9.467,7.697 14.109,11.086 2.305,1.701 4.587,3.257 6.723,4.592 2.063,1.303 4.263,2.428 5.008,2.648 0.037,-0.01 0.064,-0.01 0.091,0.01 0.073,0.037 0.05,0.027 -0.178,-0.055 -0.165,-0.055 -0.334,-0.082 -0.508,-0.082 -0.467,-0.105 -0.992,-0.165 -1.491,-0.156 -0.942,0.041 0.192,0.018 0.462,0.014 l 1.345,-0.023 2.68,-0.041 c 3.572,-0.027 7.048,0.101 10.524,0.224 6.925,0.297 13.712,0.81 20.43,1.445 13.446,1.203 26.564,3.293 39.616,5.392 26.01,4.166 51.832,10.373 76.699,15.628 25.205,5.598 50.241,12.111 74.833,21.615 4.807,1.852 7.203,7.254 5.347,12.065 -1.391,3.609 -4.793,5.854 -8.429,5.964 -26.435,0.782 -52.422,-1.422 -78.24,-4.555 -6.449,-0.819 -12.87,-1.642 -19.383,-2.891 l -19.003,-3.192 c -12.614,-2.031 -25.223,-3.874 -37.759,-5.676 -12.541,-1.783 -25.082,-3.156 -37.412,-4.326 -6.165,-0.558 -12.289,-0.993 -18.299,-1.23 -2.987,-0.096 -5.982,-0.178 -8.877,-0.165 l -5.218,-0.041 c -1.304,-0.046 -2.639,-0.156 -3.911,-0.325 -0.96,-0.174 -1.921,-0.38 -2.877,-0.608 -1.025,-0.229 -1.82,-0.476 -2.511,-0.718 l -2.204,-0.768 c -5.301,-2.104 -8.726,-4.258 -12.125,-6.403 -3.316,-2.15 -6.335,-4.318 -9.202,-6.504 -5.69,-4.404 -10.894,-8.923 -15.939,-13.488 -10.112,-9.184 -19.291,-18.523 -28.461,-28.635 l 31.283,-10.62 -0.01,0.101 c -1.354,10.35 -3.014,19.859 -5.776,30.286 -1.459,5.223 -3,10.464 -6.197,16.84 -0.851,1.637 -1.829,3.353 -3.215,5.296 -0.782,1.029 -1.39,1.916 -2.534,3.105 l -1.615,1.651 c -0.718,0.627 -1.459,1.24 -2.223,1.816 -0.677,0.54 -1.683,1.189 -2.771,1.779 -1.134,0.59 -1.971,1.088 -3.426,1.573 -1.358,0.467 -2.767,0.837 -4.167,1.098 -1.486,0.21 -3.046,0.284 -4.569,0.242 l -1.509,-0.096 -0.444,-0.046 -0.883,-0.087 -1.765,-0.183 c -18.834,-1.944 -37.878,-4.189 -56.927,-7.258 -38.02,-6.225 -76.516,-15.276 -112.995,-32.82 -18.171,-8.749 -35.72,-19.978 -51.169,-34.251 -7.665,-7.194 -14.764,-15.139 -21.052,-23.751 -6.257,-8.763 -11.425,-17.837 -15.889,-28.009 -4.528,-11.196 -6.645,-21.094 -8.475,-30.991 -1.761,-9.856 -3.128,-19.58 -4.148,-29.23 -2.063,-19.374 -3.284,-38.276 -3.856,-57.805 l 32.39,11.256 c -7.281,8.603 -14.375,16.177 -22.543,23.856 -4.071,3.791 -8.351,7.514 -13.227,11.132 -4.971,3.567 -10.076,7.249 -18.523,10.167 -4.185,1.267 -10.149,2.863 -18.322,0.594 -2.003,-0.695 -4.034,-1.5 -5.841,-2.584 -1.733,-1.121 -3.636,-2.46 -4.935,-3.823 -0.668,-0.681 -1.308,-1.39 -1.926,-2.122 -0.567,-0.659 -1.386,-1.711 -1.395,-1.77 l -1.12,-1.651 -8.983,-13.208 -8.356,-13.561 c -2.79,-4.519 -5.223,-9.216 -7.844,-13.812 -20.266,-37.174 -35.4,-76.557 -46.76,-116.663 -11.416,-40.119 -19.342,-80.971 -24.592,-122.055 -2.625,-20.549 -4.564,-41.162 -5.886,-61.83 -1.23,-20.796 -2.017,-41.103 -1.587,-62.631 l 20.417,18.765 c -2.804,0.348 -6.243,0.851 -9.412,1.354 l -9.751,1.624 c -6.517,1.153 -13.044,2.406 -19.561,3.75 l -0.306,0.064 c -9.76,2.012 -19.305,-4.267 -21.317,-14.027 -0.265,-1.299 -0.38,-2.68 -0.366,-3.952 0.343,-20.165 2.762,-39.946 6.897,-59.141 4.395,-19.09 9.98,-37.741 16.762,-55.816 6.874,-18.029 14.635,-35.614 23.243,-52.738 4.313,-8.557 8.804,-17.014 13.551,-25.356 4.757,-8.443 9.527,-16.41 15.148,-25.008 l 3.229,24.062 -24.894,-21.473 c -8.676,-7.546 -17.05,-15.44 -25.068,-23.696 -8.013,-8.251 -15.655,-16.876 -22.886,-25.905 -3.622,-4.51 -7.13,-9.129 -10.542,-13.862 -1.692,-2.388 -3.38,-4.789 -5.026,-7.263 -1.701,-2.575 -3.156,-4.766 -5.049,-7.981 -5.081,-8.644 -2.195,-19.762 6.444,-24.844 1.459,-0.86 2.991,-1.491 4.551,-1.907 l 0.485,-0.119 c 8.027,-2.085 16.895,-4.793 25.265,-7.606 8.484,-2.804 16.844,-5.964 25.123,-9.248 16.479,-6.696 32.491,-14.347 47.25,-23.325 l 5.52,-3.371 5.25,-3.617 c 3.604,-2.337 6.86,-4.94 10.108,-7.542 3.417,-2.488 6.216,-5.374 9.239,-8.1 l 2.25,-2.081 2.378,-2.456 4.757,-4.912 c 12.692,-13.085 24.999,-26.563 36.872,-40.403 23.828,-27.602 46.102,-56.557 65.974,-86.793 10.007,-15.079 19.159,-30.616 27.464,-46.408 8.265,-15.802 15.633,-31.965 21.103,-48.334 l 3.604,17.819 c -22.722,-26.28 -36.735,-57.458 -45.448,-89.176 -8.621,-31.846 -11.914,-64.749 -10.213,-97.477 1.738,-32.697 8.365,-65.425 21.45,-96.201 13.007,-30.657 33.127,-59.512 60.591,-80.614 13.689,-10.538 28.759,-19.031 45.045,-25.127 16.241,-6.078 33.501,-9.554 50.79,-10.313 34.686,-1.555 68.874,7.638 98.405,23.59 29.669,15.925 55.304,38.158 75.967,64.099 20.659,25.978 36.374,55.839 45.955,87.694 l -23.147,-12.166 c 24.624,-7.78 49.157,-13.798 73.836,-19.149 24.665,-5.315 49.431,-9.824 74.312,-13.666 49.784,-7.546 99.937,-12.948 151.061,-13.131 51.119,0.165 101.282,5.562 151.061,13.108 24.885,3.846 49.646,8.365 74.316,13.675 24.679,5.356 49.207,11.384 73.832,19.163 l -23.147,12.166 c 9.582,-31.855 25.296,-61.716 45.955,-87.694 20.659,-25.941 46.294,-48.174 75.967,-64.099 29.531,-15.953 63.714,-25.146 98.401,-23.59 17.292,0.759 34.553,4.235 50.794,10.313 16.282,6.097 31.356,14.59 45.041,25.127 27.464,21.102 47.588,49.957 60.595,80.614 13.085,30.775 19.712,63.504 21.45,96.201 1.697,32.728 -1.592,65.631 -10.213,97.477 -8.717,31.718 -22.726,62.896 -45.452,89.176 l 3.609,-17.819 c 5.465,16.369 12.838,32.532 21.098,48.334 8.31,15.793 17.462,31.329 27.469,46.408 19.868,30.236 42.146,59.191 65.969,86.793 11.878,13.84 24.185,27.318 36.877,40.403 l 4.756,4.912 2.374,2.456 2.25,2.081 c 3.023,2.726 5.827,5.612 9.243,8.1 3.247,2.602 6.504,5.205 10.108,7.542 l 5.246,3.617 5.525,3.371 c 14.754,8.978 30.771,16.63 47.25,23.325 8.278,3.284 16.634,6.444 25.123,9.248 8.369,2.813 17.233,5.52 25.264,7.606 l 0.398,0.1 c 9.701,2.525 15.518,12.431 13.003,22.132 -0.425,1.642 -1.116,3.238 -1.921,4.638 -1.894,3.215 -3.348,5.406 -5.054,7.981 -1.642,2.474 -3.325,4.875 -5.022,7.263 -3.417,4.733 -6.925,9.353 -10.547,13.862 -7.226,9.028 -14.873,17.654 -22.886,25.905 -8.013,8.255 -16.387,16.149 -25.063,23.696 l -24.894,21.473 3.229,-24.062 c 5.621,8.598 10.391,16.566 15.148,25.008 4.748,8.342 9.239,16.799 13.552,25.356 8.603,17.124 16.369,34.709 23.243,52.738 6.783,18.075 12.367,36.726 16.762,55.816 4.135,19.195 6.549,38.976 6.892,59.141 0.178,9.961 -7.766,18.18 -17.727,18.349 -1.326,0.023 -2.616,-0.096 -3.86,-0.348 l -0.398,-0.087 c -6.522,-1.345 -13.049,-2.598 -19.562,-3.75 l -9.751,-1.624 c -3.174,-0.503 -6.613,-1.006 -9.412,-1.354 l 20.412,-18.765 c 0.435,21.528 -0.352,41.834 -1.587,62.631 -1.322,20.668 -3.261,41.281 -5.882,61.83 -5.25,41.084 -13.181,81.936 -24.597,122.055 -11.361,40.106 -26.495,79.489 -46.751,116.663 -2.63,4.596 -5.058,9.293 -7.848,13.812 l -8.356,13.561 -8.978,13.208 -1.125,1.651 c -0.01,0.06 -0.832,1.112 -1.395,1.77 -0.617,0.732 -1.258,1.441 -1.926,2.122 -1.299,1.363 -3.202,2.703 -4.94,3.823 -1.806,1.084 -3.837,1.889 -5.836,2.584 -8.177,2.269 -14.137,0.672 -18.322,-0.594 -8.452,-2.918 -13.556,-6.6 -18.528,-10.167 -4.871,-3.618 -9.152,-7.341 -13.222,-11.132 -8.173,-7.679 -15.267,-15.253 -22.543,-23.856 l 32.39,-11.256 c -0.572,19.534 -1.793,38.436 -3.86,57.815 -1.02,9.65 -2.388,19.374 -4.144,29.23 -1.834,9.897 -3.956,19.799 -8.484,31 -4.464,10.167 -9.637,19.241 -15.893,28.004 -6.289,8.617 -13.387,16.552 -21.057,23.751 -15.454,14.279 -33.008,25.502 -51.178,34.247 -36.483,17.544 -74.989,26.591 -113.013,32.816 -19.044,3.069 -38.094,5.319 -56.937,7.258 l -1.761,0.183 -0.887,0.087 c -0.393,0.023 -0.087,0.064 -2.15,0.142 -3.151,0.11 -6.032,-0.444 -8.713,-1.427 -1.367,-0.48 -2.264,-0.997 -3.375,-1.587 l -1.551,-0.924 -1.171,-0.855 c -0.755,-0.576 -1.514,-1.203 -2.2,-1.82 l -1.601,-1.642 c -1.139,-1.198 -1.711,-2.053 -2.511,-3.101 -1.363,-1.93 -2.337,-3.65 -3.188,-5.273 -3.174,-6.371 -4.72,-11.612 -6.174,-16.835 -2.758,-10.432 -4.409,-19.909 -5.767,-30.309 v -0.018 l 31.283,10.62 c -10.126,9.719 -20.142,18.72 -30.945,27.634 -5.411,4.418 -10.935,8.768 -16.982,12.975 -3.046,2.095 -6.174,4.171 -9.71,6.183 -1.793,1.006 -3.682,2.008 -5.781,2.973 -1.066,0.49 -2.287,0.965 -3.43,1.427 -1.441,0.467 -2.566,0.91 -4.322,1.303 l -2.611,0.521 c -1.025,0.146 -2.273,0.224 -3.407,0.26 -1.5,0.037 -1.441,0 -1.912,-0.014 l -1.148,-0.046 -4.597,-0.151 c -3.115,-0.032 -6.229,-0.069 -9.408,0.023 -6.325,0.105 -12.756,0.458 -19.204,0.906 -12.916,0.933 -25.942,2.337 -38.981,4.002 -13.039,1.665 -26.101,3.599 -39.159,5.703 l -19.836,3.325 -19.918,2.543 -79.585,9.984 c -5.017,0.631 -9.591,-2.927 -10.222,-7.94 -0.6,-4.837 2.707,-9.264 7.432,-10.143"
   id="path56" />&#10;			</g>&#10;			<g
   id="g58">&#10;				<path
   style="fill:#650000"
   d="m 1855.03,1048.82 c -1.134,4.885 -102.041,-6.545 -166.218,8.16 -75.386,17.279 -84.108,76.475 -98.552,76.475 -14.439,0 -23.165,-59.196 -98.547,-76.475 -64.131,-14.704 -165.038,-3.275 -166.218,-8.16 -1.308,-5.584 38.478,-32.193 74.033,-43.362 98.291,-30.803 190.732,9.513 190.732,9.513 0,0 92.446,-40.316 190.737,-9.513 35.55,11.169 75.34,37.778 74.033,43.362"
   id="path57" />&#10;			</g>&#10;			<g
   id="g59">&#10;				<path
   style="fill:#650000"
   d="m 1900.835,931.01 c -0.174,8.287 -104.964,-19.195 -196.056,-11.301 -77.001,6.673 -114.518,50.3 -114.518,50.3 0,0 -37.517,-43.628 -114.518,-50.3 -91.088,-7.894 -195.878,19.589 -196.056,11.301 -0.128,-7.985 38.871,-33.812 93.667,-53.401 115.611,-41.313 216.907,-25.914 216.907,-25.914 0,0 101.3,-15.399 216.911,25.914 54.792,19.589 93.837,45.416 93.663,53.401"
   id="path58" />&#10;			</g>&#10;			<g
   id="g60">&#10;				<path
   style="fill:#650000"
   d="m 1740.302,2063.857 c -62.411,71.947 -150.165,63.335 -150.165,63.335 0,0 -87.795,8.612 -150.21,-63.335 -63.605,-73.26 -48.837,-180.703 6.307,-139.783 87.794,65.142 143.903,17.183 143.903,17.183 0,0 56.063,47.959 143.858,-17.183 55.143,-40.92 69.911,66.523 6.307,139.783"
   id="path59" />&#10;			</g>&#10;			<g
   id="g61">&#10;				<path
   style="fill:#6b184e"
   d="m 1598.433,2129.755 c -5.293,0 -8.359,-0.273 -8.521,-0.288 -0.42,0.088 -89.238,7.905 -151.714,-64.111 -44.282,-51.006 -53.057,-121.113 -30.791,-145.149 5.693,-6.147 18.491,-14.075 40.19,2.031 85.361,63.332 140.498,17.747 141.055,17.28 l 1.479,-1.267 1.489,1.265 c 0.547,0.466 55.825,45.928 141.011,-17.278 21.69,-16.104 34.487,-8.189 40.191,-2.031 22.261,24.033 13.486,94.143 -30.791,145.149 v 0 c -51.098,58.906 -119.804,64.399 -143.598,64.399 z m -174.404,-212.444 c -5.098,0 -9.556,1.997 -13.267,6.003 -18.672,20.156 -13.926,87.422 30.894,139.043 60.884,70.181 147.407,62.651 148.257,62.559 1.318,0.088 87.798,7.607 148.662,-62.559 v 0 c 44.819,-51.621 49.561,-118.887 30.894,-139.043 -8.159,-8.809 -19.956,-7.908 -34.111,2.595 -80.4,59.661 -135.63,25.178 -145.22,18.22 -9.6,6.958 -64.854,41.455 -145.264,-18.22 -7.72,-5.727 -14.737,-8.598 -20.845,-8.598 z"
   id="path60" />&#10;			</g>&#10;			<g
   id="g62">&#10;				<path
   d="m 1719.193,2084.563 c -59.329,49.482 -129.044,42.603 -129.044,42.603 0,0 -69.569,6.879 -128.847,-42.351 v -0.05 c 10.492,-23.307 24.148,-33.104 35.921,-32.559 8.214,0.398 10.935,5.145 9.751,6.138 -5.987,5.045 -11.878,10.734 -8.315,16.424 4.949,7.917 41.615,21.478 91.44,21.523 h 0.348 c 49.825,-0.046 86.537,-13.606 91.49,-21.523 3.558,-5.689 -2.378,-11.379 -8.365,-16.424 -1.185,-0.992 1.537,-5.74 9.751,-6.138 11.772,-0.545 25.332,9.155 35.87,32.357"
   id="path61" />&#10;			</g>&#10;			<g
   id="g63">&#10;				<path
   d="m 1719.193,2084.563 c -3.956,3.366 -7.967,6.385 -12.024,9.207 -56.356,39.383 -117.02,33.396 -117.02,33.396 0,0 -58.981,5.841 -114.646,-31.713 -4.752,-3.215 -9.499,-6.783 -14.201,-10.638 10.492,-23.357 24.148,-33.154 35.921,-32.61 8.214,0.398 10.935,5.145 9.751,6.138 -5.987,5.045 -11.878,10.734 -8.315,16.424 4.949,7.917 41.615,21.478 91.44,21.523 h 0.348 c 49.825,-0.046 86.537,-13.606 91.49,-21.523 3.558,-5.689 -2.378,-11.379 -8.365,-16.424 -1.185,-0.992 1.537,-5.74 9.751,-6.138 11.772,-0.544 25.332,9.156 35.87,32.358"
   id="path62" />&#10;			</g>&#10;			<g
   id="g64">&#10;				<path
   d="m 1719.193,2084.563 c -59.329,49.482 -129.044,42.603 -129.044,42.603 0,0 -69.569,6.879 -128.847,-42.402 10.538,-23.307 24.148,-33.104 35.921,-32.559 8.214,0.398 10.935,5.145 9.751,6.138 -5.987,5.045 -11.878,10.734 -8.315,16.424 4.949,7.917 41.615,21.478 91.44,21.523 h 0.348 c 49.825,-0.046 86.537,-13.606 91.49,-21.523 3.558,-5.689 -2.378,-11.379 -8.365,-16.424 -1.185,-0.992 1.537,-5.74 9.751,-6.138 11.772,-0.544 25.332,9.156 35.87,32.358"
   id="path63" />&#10;			</g>&#10;			<g
   id="g65">&#10;				<path
   style="fill:#ea5c66"
   d="m 1707.17,2093.768 c -56.356,39.383 -117.02,33.401 -117.02,33.401 0,0 -58.981,5.836 -114.646,-31.718 16.922,-27.313 57.842,-69.866 114.843,-29.687 56.556,-38.006 97.774,0.741 116.823,28.004"
   id="path64" />&#10;			</g>&#10;			<g
   id="g66">&#10;				<path
   style="fill:#ffffff"
   d="m 1719.193,2084.563 c -59.329,49.482 -129.044,42.603 -129.044,42.603 0,0 -69.569,6.879 -128.847,-42.402 10.538,-23.307 24.148,-33.104 35.921,-32.559 8.214,0.398 10.935,5.145 9.751,6.138 -5.987,5.045 -11.878,10.734 -8.315,16.424 4.949,7.917 41.615,21.478 91.44,21.523 h 0.348 c 49.825,-0.046 86.537,-13.606 91.49,-21.523 3.558,-5.689 -2.378,-11.379 -8.365,-16.424 -1.185,-0.992 1.537,-5.74 9.751,-6.138 11.772,-0.544 25.332,9.156 35.87,32.358"
   id="path65" />&#10;			</g>&#10;			<g
   id="g67">&#10;				<path
   d="m 1590.45,2099.037 c -49.639,-0.049 -88.184,-13.32 -94.121,-22.817 -4.727,-7.544 2.656,-14.658 7.671,-18.95 -0.952,-0.898 -3.154,-2.144 -6.909,-2.324 -11.646,-0.371 -24.277,11.016 -33.291,30.952 -0.63,1.377 -2.241,1.982 -3.633,1.367 -1.377,-0.625 -1.992,-2.251 -1.367,-3.633 10.122,-22.378 24.116,-34.961 38.55,-34.165 7.1,0.342 11.333,3.633 12.378,6.743 0.552,1.636 0.176,3.257 -0.991,4.233 -7.544,6.357 -9.643,9.844 -7.754,12.866 4.282,6.846 39.614,20.19 89.121,20.239 49.883,-0.049 85.229,-13.394 89.502,-20.239 2.153,-3.433 -1.387,-7.466 -7.798,-12.866 -1.162,-0.977 -1.538,-2.598 -0.986,-4.233 1.045,-3.11 5.278,-6.401 12.368,-6.743 14.36,-0.771 28.393,11.714 38.501,33.965 0.625,1.377 0.015,3.003 -1.367,3.633 -1.358,0.63 -3.008,0.024 -3.633,-1.367 -9.126,-20.093 -21.152,-31.187 -33.242,-30.752 -3.75,0.181 -5.952,1.421 -6.9,2.324 5.029,4.302 12.427,11.431 7.71,18.95 -5.928,9.492 -44.488,22.769 -93.809,22.817 z m -85.244,-42.793 z m 170.132,0 c 0.01,0 0.01,0 0.01,0 z"
   id="path66" />&#10;			</g>&#10;			<g
   id="g68">&#10;				<path
   style="fill:#650000"
   d="m 1590.45,2099.037 c -49.629,-0.049 -88.174,-13.32 -94.116,-22.813 -4.727,-7.544 2.651,-14.663 7.661,-18.96 -0.947,-0.898 -3.149,-2.139 -6.904,-2.324 -11.772,-0.43 -24.282,10.986 -33.247,30.854 -0.405,1.016 -1.392,1.738 -2.544,1.738 -1.514,0 -2.744,-1.206 -2.744,-2.72 v -0.049 c 0,-0.391 0.083,-0.771 0.244,-1.128 10.073,-22.388 24.243,-34.907 38.55,-34.175 7.105,0.347 11.338,3.643 12.383,6.753 0.547,1.636 0.166,3.257 -1.001,4.229 -7.539,6.357 -9.639,9.849 -7.749,12.871 4.287,6.841 39.624,20.186 89.121,20.234 49.878,-0.049 85.225,-13.394 89.502,-20.234 2.153,-3.433 -1.387,-7.471 -7.798,-12.876 -1.157,-0.967 -1.538,-2.588 -0.991,-4.224 1.045,-3.11 5.274,-6.406 12.373,-6.753 0.361,-0.02 0.728,-0.024 1.094,-0.024 13.984,0 27.559,12.305 37.407,33.989 0.625,1.377 0.015,3.003 -1.367,3.633 -1.358,0.625 -3.008,0.02 -3.633,-1.367 -8.911,-19.619 -20.674,-30.771 -32.397,-30.771 -0.278,0 -0.562,0.01 -0.845,0.02 -3.75,0.186 -5.947,1.426 -6.9,2.324 5.034,4.312 12.422,11.44 7.71,18.96 -5.933,9.493 -44.498,22.765 -93.809,22.813 z m -85.244,-42.797 c 0,0.01 -0.01,0.01 -0.015,0.015 0,-0.01 0.01,-0.011 0.015,-0.015 z m 170.127,0 c 0,0 0.01,0 0.015,0.01 0,-0.01 -0.01,-0.01 -0.015,-0.01 z"
   id="path67" />&#10;			</g>&#10;			<g
   id="g69">&#10;				<path
   style="fill:#650000"
   d="m 2156.737,1329.983 c 0,0 -108.897,-184.955 -226.21,-161.091 -74.421,15.143 -113.804,108.275 -113.804,108.275 0,0 77.595,-20.988 156.878,-11.063 74.417,9.317 183.136,63.879 183.136,63.879"
   id="path68" />&#10;			</g>&#10;			<g
   id="g70">&#10;				<path
   style="fill:#650000"
   d="m 1023.517,1327.652 c 0,0 108.897,-184.951 226.214,-161.091 74.421,15.143 113.804,108.275 113.804,108.275 0,0 -77.595,-20.984 -156.883,-11.059 -74.412,9.312 -183.135,63.875 -183.135,63.875"
   id="path69" />&#10;			</g>&#10;			<g
   id="g71">&#10;				<path
   style="fill:#ffffff"
   d="m 1362.574,1855.839 c 28.823,-3.819 94.66,-51.187 89.844,-198.109 -6.243,-190.293 -93.772,-283.233 -207.22,-288.991 -111.518,-5.657 -233.77,124.402 -233.765,313.972 0,81.213 48.946,138.214 127.987,169.396 62.329,24.588 131.148,27.377 196.042,10.698 z"
   id="path70" />&#10;			</g>&#10;			<g
   id="g72">&#10;				<path
   style="fill:#ffffff"
   d="m 1824.287,1855.839 c -28.823,-3.819 -94.66,-51.187 -89.844,-198.109 6.243,-190.293 93.772,-283.233 207.22,-288.991 111.513,-5.657 233.774,124.402 233.77,313.972 -0.01,81.213 -48.951,138.214 -127.992,169.396 -62.329,24.588 -131.148,27.377 -196.042,10.698 z"
   id="path71" />&#10;			</g>&#10;			<g
   id="g73">&#10;				<path
   style="fill:#ea5c66"
   d="m 1196.239,912.483 c -37.128,23.184 -63.125,22.941 -107.69,61.945 10.053,-14.187 21.949,-28.768 35.249,-40.874 41.29,-37.531 11.837,-124.768 -42.017,-113.082 -26.925,5.863 -65.416,68.705 -67.515,71.247 3.746,-83.939 59.479,-112.954 87.132,-113.027 70.029,-0.142 131.608,110.859 94.841,133.791"
   id="path72" />&#10;			</g>&#10;			<g
   id="g74">&#10;				<path
   style="fill:#ea5c66"
   d="m 1974.651,912.483 c 37.124,23.184 63.124,22.941 107.69,61.945 -10.057,-14.187 -21.953,-28.768 -35.249,-40.874 -41.29,-37.531 -11.837,-124.768 42.017,-113.082 26.92,5.863 65.411,68.705 67.511,71.247 -3.741,-83.939 -59.48,-112.954 -87.127,-113.027 -70.031,-0.142 -131.609,110.859 -94.842,133.791"
   id="path73" />&#10;			</g>&#10;			<g
   id="g75">&#10;				<path
   style="fill:#650000"
   d="m 1041.476,1008.189 c 15.372,-21.084 32.934,-41.066 54.105,-58.318 10.565,-8.635 22.392,-16.154 34.43,-22.525 12.047,-6.504 23.952,-11.425 34.645,-16.89 5.383,-2.73 10.542,-5.534 15.495,-8.667 l 3.737,-2.301 c 0.233,-0.151 0.796,-0.466 0.764,-0.476 0.05,-0.055 0.105,-0.1 0.165,-0.133 0.142,-0.059 0.156,-0.192 0.284,-0.238 0.293,-0.329 0.558,-0.714 0.928,-1.592 0.755,-1.733 1.189,-5.616 0.695,-10.057 -0.435,-4.464 -1.679,-9.472 -3.435,-14.466 -7.222,-20.179 -21.157,-40.11 -37.952,-54.485 -8.42,-7.213 -17.745,-12.925 -27.213,-16.506 -4.743,-1.779 -9.536,-2.936 -14.283,-3.449 -2.383,-0.279 -4.839,-0.279 -6.604,-0.229 -2.081,0.206 -4.308,0.444 -6.636,1.052 -9.385,2.164 -18.884,7.336 -27.185,13.835 -8.306,6.632 -15.385,15.033 -21.011,24.551 -5.474,9.609 -9.774,20.197 -12.596,31.448 -2.845,11.251 -4.231,23.087 -4.72,35.112 -0.457,12.033 0.247,24.254 1.436,36.534 1.262,12.271 3.421,24.565 5.808,36.872 l 0.032,0.165 c 0.965,4.971 -2.282,9.778 -7.249,10.743 -4.551,0.878 -8.964,-1.77 -10.414,-6.028 -8.493,-24.826 -14.581,-50.927 -15.88,-78.135 -1.326,-27.043 2.68,-55.784 16.035,-81.831 13.46,-25.768 36.369,-48.247 67.209,-56.776 3.855,-1.093 7.985,-1.802 12.266,-2.278 4.628,-0.361 8.594,-0.334 12.591,-0.014 8.013,0.636 15.806,2.365 23.124,4.894 14.695,5.058 27.405,13.222 38.546,22.493 11.118,9.362 20.75,20.014 29.029,31.649 8.223,11.685 15.294,24.258 20.174,38.446 2.429,7.098 4.363,14.594 5.164,22.895 0.7,8.246 0.526,17.581 -3.723,27.721 -2.154,5.004 -5.543,10.048 -9.993,14.036 -1.13,0.947 -2.255,1.953 -3.467,2.763 l -1.816,1.226 c -0.686,0.458 -0.842,0.503 -1.285,0.773 l -4.546,2.575 c -6.042,3.439 -12.303,6.481 -18.477,9.266 -12.403,5.635 -24.4,10.048 -35.372,14.823 -11.009,4.82 -21.286,10.446 -31.43,16.913 -20.01,13.318 -39.036,29.619 -57.714,46.774 l -0.018,0.018 c -3.737,3.435 -9.55,3.188 -12.984,-0.549 -3.014,-3.282 -3.188,-8.167 -0.659,-11.634"
   id="path74" />&#10;			</g>&#10;			<g
   id="g76">&#10;				<path
   style="fill:#650000"
   d="m 2113.525,1020.355 c -18.679,-17.155 -37.705,-33.456 -57.714,-46.779 -10.144,-6.467 -20.417,-12.088 -31.425,-16.909 -10.976,-4.775 -22.973,-9.193 -35.377,-14.823 -6.17,-2.785 -12.431,-5.827 -18.477,-9.266 l -4.546,-2.575 c -0.444,-0.27 -0.599,-0.316 -1.285,-0.773 l -1.816,-1.226 c -1.208,-0.809 -2.333,-1.816 -3.467,-2.762 -4.45,-3.988 -7.835,-9.033 -9.993,-14.036 -4.249,-10.14 -4.423,-19.474 -3.718,-27.72 0.796,-8.301 2.735,-15.797 5.159,-22.9 4.88,-14.183 11.951,-26.755 20.174,-38.441 8.278,-11.635 17.915,-22.287 29.029,-31.649 11.146,-9.271 23.851,-17.434 38.546,-22.493 7.323,-2.529 15.116,-4.258 23.129,-4.894 3.997,-0.32 7.962,-0.347 12.591,0.014 4.276,0.476 8.411,1.185 12.262,2.278 30.84,8.53 53.749,31.009 67.213,56.776 13.355,26.047 17.361,54.783 16.031,81.831 -1.294,27.208 -7.382,53.31 -15.875,78.135 -1.642,4.784 -6.847,7.341 -11.635,5.703 -4.382,-1.505 -6.893,-5.991 -6.033,-10.414 l 0.032,-0.169 c 2.392,-12.307 4.542,-24.601 5.813,-36.872 1.185,-12.28 1.894,-24.501 1.432,-36.538 -0.49,-12.024 -1.875,-23.856 -4.72,-35.107 -2.817,-11.251 -7.126,-21.839 -12.595,-31.448 -5.621,-9.518 -12.701,-17.919 -21.011,-24.556 -8.301,-6.494 -17.8,-11.667 -27.181,-13.831 -2.332,-0.608 -4.555,-0.851 -6.636,-1.052 -1.765,-0.051 -4.221,-0.051 -6.604,0.229 -4.752,0.512 -9.541,1.669 -14.283,3.448 -9.472,3.577 -18.797,9.289 -27.217,16.506 -16.794,14.375 -30.73,34.307 -37.952,54.485 -1.752,4.994 -2.996,10.003 -3.435,14.466 -0.489,4.441 -0.059,8.324 0.695,10.057 0.375,0.873 0.64,1.258 0.933,1.591 0.119,0.041 0.137,0.178 0.279,0.233 0.059,0.036 0.114,0.082 0.169,0.137 -0.037,0.009 0.526,0.325 0.764,0.476 l 3.732,2.3 c 4.958,3.133 10.112,5.936 15.5,8.667 10.693,5.465 22.594,10.387 34.64,16.89 12.038,6.371 23.865,13.89 34.434,22.525 21.171,17.247 38.729,37.229 54.101,58.318 2.996,4.103 2.09,9.851 -2.008,12.842 -3.599,2.625 -8.475,2.255 -11.631,-0.654 z"
   id="path75" />&#10;			</g>&#10;			<g
   id="g77">&#10;				<path
   style="fill:#ffffff"
   d="m 1723.698,1892.713 c -7.226,84.954 -30.977,110.045 -35.034,110.045 -4.107,0 -6.033,-26.87 -6.033,-26.87 0,0 -6.435,16.675 -15.738,19.639 -24.098,7.725 -49.07,10.057 -76.516,10.057 -27.441,0 -52.925,-2.333 -77.069,-10.057 -9.252,-2.964 -15.687,-19.639 -15.687,-19.639 0,0 -1.98,26.87 -6.037,26.87 -4.107,0 -27.807,-25.091 -35.034,-110.045 l 133.553,8.905 z"
   id="path76" />&#10;			</g>&#10;			<g
   id="g78">&#10;				<path
   style="fill:#650000"
   d="m 1599.649,2138.979 c -4.58,0 -7.851,-0.186 -9.512,-0.313 -11.24,0.84 -96.421,4.644 -158.848,-67.314 -48.047,-55.347 -55.903,-130.037 -30.596,-157.361 4.892,-5.276 23.1,-20.806 52.354,0.901 78.789,58.462 127.676,19.314 129.722,17.622 4.282,-3.557 10.576,-3.562 14.8,0.054 1.982,1.643 50.811,40.793 129.614,-17.676 29.238,-21.707 47.466,-6.174 52.349,-0.901 25.308,27.324 17.456,102.014 -30.596,157.361 -53.193,61.323 -122.89,67.627 -149.287,67.627 z m -9.507,-23.218 c 0.376,0 0.747,0.015 1.113,0.054 0.786,0.054 82.822,6.938 140.41,-59.448 0,-0.01 0.01,-0.01 0.01,-0.01 42.236,-48.652 45.415,-111.362 31.084,-126.831 -4.575,-4.942 -11.963,-3.682 -21.948,3.725 -76.47,56.748 -131.436,33.682 -150.674,21.909 -19.248,11.77 -74.233,34.844 -150.708,-21.909 -9.99,-7.412 -17.383,-8.669 -21.953,-3.725 -14.326,15.469 -11.148,78.179 31.089,126.831 57.588,66.387 139.673,59.531 140.483,59.448 0.362,-0.034 0.733,-0.049 1.099,-0.049 z"
   id="path77" />&#10;			</g>&#10;			<g
   id="g79">&#10;				<path
   style="fill:#650000"
   d="m 1686.385,1866.96 c -13.355,25.438 -49.948,14.466 -49.948,14.466 0,0 -28.425,42.301 -46.308,42.301 -17.887,0 -46.307,-42.301 -46.307,-42.301 0,0 -36.593,10.972 -49.953,-14.466 -8.319,-15.797 -2.333,-31.43 13.89,-40.019 17.174,-9.115 43.143,-17.915 82.37,-17.915 39.223,0 65.196,8.8 82.37,17.915 16.219,8.59 22.21,24.222 13.886,40.019"
   id="path78" />&#10;			</g>&#10;			<g
   id="g80">&#10;				<path
   style="fill:#ffffff"
   d="m 1486.979,2082.424 c 6.623,-10.478 16.41,-20.787 22.127,-18.349 6.325,2.703 0.434,18.326 3.531,19.401 l -2.241,8.823 z"
   id="path79" />&#10;			</g>&#10;			<g
   id="g81">&#10;				<path
   style="fill:#650000"
   d="m 1485.646,2081.579 c 2.259,-3.705 4.724,-7.281 7.588,-10.611 2.9,-3.284 5.918,-6.577 10.501,-8.667 1.185,-0.457 2.497,-0.892 4.061,-0.773 1.5,0.046 3.201,0.727 4.317,1.944 2.241,2.52 2.36,5.255 2.52,7.528 0.091,2.323 -0.082,4.528 -0.206,6.632 -0.055,1.034 -0.105,2.067 -0.082,2.945 0.018,0.439 0.055,0.846 0.114,1.029 0.014,0.316 0.183,-0.306 -0.919,-0.718 1.432,0.494 2.191,2.058 1.692,3.49 -0.498,1.431 -2.058,2.191 -3.49,1.692 -2.067,-0.938 -2.41,-2.561 -2.57,-3.293 -0.174,-0.865 -0.169,-1.518 -0.169,-2.15 0.023,-1.244 0.137,-2.342 0.247,-3.421 0.224,-2.14 0.467,-4.18 0.48,-6.11 0.041,-1.903 -0.316,-3.741 -0.965,-4.455 -0.503,-0.773 -1.834,-0.887 -3.467,-0.311 -3.284,1.271 -6.499,4.176 -9.28,7.135 -2.836,3 -5.369,6.339 -7.707,9.801 -0.476,0.727 -1.454,0.933 -2.186,0.458 -0.703,-0.466 -0.905,-1.422 -0.479,-2.145"
   id="path80" />&#10;			</g>&#10;			<g
   id="g82">&#10;				<path
   style="fill:#ffffff"
   d="m 1693.35,2082.424 c -6.623,-10.478 -16.406,-20.787 -22.127,-18.349 -6.325,2.703 -0.43,18.326 -3.531,19.401 l 2.241,8.823 z"
   id="path81" />&#10;			</g>&#10;			<g
   id="g83">&#10;				<path
   style="fill:#650000"
   d="m 1692.017,2083.268 c -2.333,-3.462 -4.871,-6.801 -7.707,-9.806 -2.781,-2.955 -5.991,-5.859 -9.28,-7.13 -1.628,-0.576 -2.964,-0.462 -3.467,0.311 -0.649,0.714 -1.006,2.552 -0.965,4.455 0.014,1.93 0.261,3.97 0.48,6.11 0.11,1.079 0.224,2.172 0.247,3.421 0,0.631 0,1.285 -0.169,2.149 -0.16,0.732 -0.499,2.355 -2.566,3.293 -1.432,0.499 -2.996,-0.26 -3.49,-1.692 -0.499,-1.431 0.256,-2.996 1.692,-3.494 -1.107,0.416 -0.933,1.038 -0.919,0.723 0.055,-0.183 0.096,-0.59 0.11,-1.029 0.027,-0.878 -0.023,-1.912 -0.082,-2.945 -0.119,-2.104 -0.293,-4.308 -0.206,-6.636 0.165,-2.268 0.279,-5.003 2.52,-7.523 1.116,-1.217 2.817,-1.898 4.318,-1.944 1.564,-0.119 2.877,0.311 4.061,0.773 4.583,2.09 7.601,5.383 10.505,8.667 2.859,3.33 5.328,6.906 7.583,10.611 0.457,0.746 0.219,1.715 -0.521,2.168 -0.721,0.442 -1.673,0.208 -2.144,-0.482"
   id="path82" />&#10;			</g>&#10;			&#10;			&#10;			&#10;			&#10;			&#10;			<g
   id="oci"><path
     style="fill:#650000"
     d="m 1393.415,1687.291 c 0,85.339 -53.813,154.519 -120.189,154.519 -66.381,0 -120.194,-69.18 -120.194,-154.519 0,-85.334 53.813,-154.514 120.194,-154.514 66.376,0 120.189,69.18 120.189,154.514"
     id="path83" /><path
     style="fill:#ffffff"
     d="m 1352.776,1735.524 c 0,35.93 -21.437,65.06 -47.881,65.06 -26.44,0 -47.877,-29.13 -47.877,-65.06 0,-35.93 21.437,-65.06 47.877,-65.06 26.444,0 47.881,29.13 47.881,65.06"
     id="path84" /><path
     style="opacity:0.35;fill:#ffffff"
     d="m 1249.138,1649.628 c 0,24.215 -12.481,43.851 -27.875,43.851 -15.393,0 -27.871,-19.636 -27.871,-43.851 0,-24.219 12.477,-43.856 27.871,-43.856 15.393,0 27.875,19.636 27.875,43.856"
     id="path85" /><path
     style="fill:#650000"
     d="m 1786.859,1687.291 c 0,85.339 53.813,154.519 120.189,154.519 66.381,0 120.194,-69.18 120.194,-154.519 0,-85.334 -53.813,-154.514 -120.194,-154.514 -66.376,0 -120.189,69.18 -120.189,154.514"
     id="path86" /><path
     style="fill:#ffffff"
     d="m 1827.498,1735.524 c 0,35.93 21.437,65.06 47.881,65.06 26.44,0 47.877,-29.13 47.877,-65.06 0,-35.93 -21.437,-65.06 -47.877,-65.06 -26.444,0 -47.881,29.13 -47.881,65.06"
     id="path87" /><path
     style="opacity:0.35;fill:#ffffff"
     d="m 1931.136,1649.628 c 0,24.215 12.481,43.851 27.875,43.851 15.393,0 27.871,-19.636 27.871,-43.851 0,-24.219 -12.477,-43.856 -27.871,-43.856 -15.393,0 -27.875,19.636 -27.875,43.856"
     id="path88" /></g>&#10;			<g
   id="g90">&#10;				<path
   style="fill:#fd9d24"
   d="m 2930.424,3234.083 c -8.265,22.41 -19.936,39.882 -36.168,49.083 -60.564,34.339 -214.199,65.462 -340.824,3.462 -79.018,-38.693 -50.666,-146.314 19.694,-175.603 6.485,-2.721 13.314,-4.747 20.485,-5.987 0,0 5.447,-156.115 0,-169.424 -3.957,-9.595 -37.655,-37.554 -76.297,-79.516 -14.05,-15.285 -28.8,-32.404 -42.95,-51.16 -20.536,-27.117 -39.882,-57.646 -54.526,-90.996 -9.353,-21.276 -16.776,-43.687 -21.327,-67.044 -2.671,-13.456 -4.354,-27.263 -4.898,-41.368 l 399.155,-390.049 c 31.572,48.096 51.215,97.824 62.941,146.56 v 0.051 c 10.739,44.579 14.896,88.224 15.541,128.993 1.482,93.173 -15.395,171.006 -13.561,208.757 0.096,2.177 0.242,4.358 0.444,6.531 0.938,11.429 2.771,22.662 5.342,33.749 3.371,14.498 8.018,28.695 13.309,42.452 13.067,33.648 30.383,65.018 44.437,93.868 3.412,6.874 6.581,13.556 9.454,20.133 6.43,14.448 11.429,28.205 14,41.222 1.285,6.234 1.98,12.317 1.98,18.207 0.096,55.071 13.405,198.069 -16.231,278.079"
   id="path89" />&#10;			</g>&#10;			<g
   id="g91">&#10;				<path
   style="fill:#fc7d27"
   d="m 2930.449,3234.069 c -6.429,-37.857 -26.276,-65.357 -54.541,-84.949 22.143,-98.469 27.245,-185.46 0.867,-263.623 -27.704,-61.123 -74.133,-163.011 -66.531,-203.317 6.684,-35.612 37.398,-136.888 57.653,-248.368 2.041,19.592 3.061,38.725 3.367,57.296 1.479,93.164 -15.408,170.97 -13.572,208.725 0.102,2.194 0.255,4.388 0.459,6.531 0.918,11.428 2.755,22.653 5.306,33.776 3.367,14.49 8.01,28.673 13.316,42.449 13.061,33.623 30.408,65 44.439,93.878 3.418,6.836 6.582,13.52 9.439,20.102 6.429,14.439 11.429,28.214 14.031,41.225 1.275,6.224 1.99,12.296 1.99,18.214 0.103,55.05 13.369,198.061 -16.223,278.061 z"
   id="path90" />&#10;			</g>&#10;			<g
   id="g92">&#10;				<path
   style="fill:#650000"
   d="m 2677.183,2631.066 c 2.117,5.699 -106.597,75.309 -257.347,82.878 -9.353,-21.276 -16.776,-43.691 -21.327,-67.044 127.549,35.272 276.556,-21.532 278.674,-15.834"
   id="path91" />&#10;			</g>&#10;			<g
   id="g93">&#10;				<path
   style="fill:#650000"
   d="m 2671.591,2773.767 c 3.343,3.142 -53.562,58.153 -154.277,82.334 -14.054,-15.29 -28.8,-32.408 -42.95,-51.165 143.378,6.102 193.824,-34.375 197.227,-31.169"
   id="path92" />&#10;			</g>&#10;			<g
   id="g94">&#10;				<path
   style="fill:#650000"
   d="m 2871.248,2491.085 c -40.454,80.628 -190.641,109.149 -199.582,100.418 -10.675,-10.423 155.058,-43.074 184.045,-229.411 10.735,44.578 14.892,88.224 15.537,128.993"
   id="path93" />&#10;			</g>&#10;			<g
   id="g95">&#10;				<path
   style="fill:#650000"
   d="m 2876.786,2782.575 c -79.265,25.086 -159.82,32.706 -159.82,26.326 0,-7.13 75.158,-29.248 141.168,-102.526 0.937,11.429 2.767,22.662 5.342,33.749 3.367,14.497 8.018,28.694 13.31,42.451"
   id="path94" />&#10;			</g>&#10;			<g
   id="g96">&#10;				<path
   style="fill:#650000"
   d="m 2944.676,2937.796 c -80.111,15.042 -162.646,11.576 -166.255,3.462 -4.157,-9.403 72.24,-14.05 142.801,-64.817 3.412,6.874 6.582,13.556 9.449,20.133 6.435,14.448 11.434,28.206 14.005,41.222"
   id="path95" />&#10;			</g>&#10;			<g
   id="g97">&#10;				<path
   style="fill:#ffffff"
   d="m 2930.449,3234.069 c -8.265,22.449 -19.949,39.898 -36.174,49.082 -60.561,34.337 -214.235,65.459 -340.868,3.47 -7.296,-3.572 -13.674,-7.755 -19.184,-12.347 -0.969,-0.816 -1.888,-1.633 -2.806,-2.5 -1.02,-0.918 -1.99,-1.888 -2.959,-2.857 -0.918,-0.969 -1.888,-1.939 -2.755,-2.959 -1.786,-1.99 -3.418,-4.082 -4.949,-6.173 -0.765,-1.021 -1.429,-2.041 -2.143,-3.112 -0.817,-1.225 -1.582,-2.5 -2.296,-3.776 -0.561,-1.02 -1.123,-2.041 -1.633,-3.061 -0.051,-0.153 -0.153,-0.306 -0.255,-0.459 -1.021,-2.092 -1.99,-4.286 -2.857,-6.479 -0.51,-1.174 -0.918,-2.398 -1.327,-3.572 -0.051,-0.102 -0.102,-0.204 -0.153,-0.306 -0.969,-3.112 -1.837,-6.275 -2.449,-9.49 -9.286,-45.357 18.878,-99.133 65.459,-118.521 98.521,-11.071 229.184,-13.163 302.807,38.113 28.266,19.589 48.113,47.089 54.542,84.947 z"
   id="path96" />&#10;			</g>&#10;			<g
   style="opacity:0.15"
   id="g98">&#10;				<path
   style="fill:#650000"
   d="m 2930.449,3234.069 c -8.265,22.449 -19.949,39.898 -36.174,49.082 -60.561,34.337 -214.235,65.459 -340.868,3.47 -7.296,-3.572 -13.674,-7.755 -19.184,-12.347 -0.969,-0.816 -1.888,-1.633 -2.806,-2.5 -1.02,-0.918 -1.99,-1.888 -2.959,-2.857 -0.918,-0.969 -1.888,-1.939 -2.755,-2.959 -1.786,-1.99 -3.418,-4.082 -4.949,-6.173 -0.765,-1.021 -1.429,-2.041 -2.143,-3.112 -0.817,-1.225 -1.582,-2.5 -2.296,-3.776 -0.561,-1.02 -1.123,-2.041 -1.633,-3.061 -0.051,-0.153 -0.153,-0.306 -0.255,-0.459 -1.021,-2.092 -1.99,-4.286 -2.857,-6.479 -0.51,-1.174 -0.918,-2.398 -1.327,-3.572 -0.051,-0.102 -0.102,-0.204 -0.153,-0.306 -1.837,-3.979 -2.653,-7.092 -2.449,-9.49 1.327,-21.786 78.725,12.857 164.082,19.796 135.204,11.02 179.439,-25.459 196.99,-70.103 2.551,-10.153 5,-20.204 7.194,-30.102 28.266,19.59 48.113,47.09 54.542,84.948 z"
   id="path97" />&#10;			</g>&#10;			<g
   id="g99">&#10;				<path
   style="fill:#650000"
   d="m 2808.075,2205.446 c 20.146,31.1 37.005,64.433 49.504,99.288 6.366,17.398 11.438,35.189 15.958,53.095 4.167,17.979 7.679,36.09 10.176,54.316 2.415,18.226 4.157,36.516 5.068,54.805 0.846,18.285 1.033,36.561 0.626,54.773 -0.828,36.419 -4.221,72.592 -8.132,108.124 -1.889,17.714 -4.039,35.441 -5.027,52.249 -0.283,4.226 -0.361,8.283 -0.365,12.207 -0.06,3.746 0.365,7.816 0.787,11.882 0.467,4.048 0.585,8.104 1.303,12.152 l 2.223,12.129 c 3.549,16.136 8.296,32.216 14.786,48.032 6.206,15.871 13.547,31.54 21.395,47.291 7.748,15.756 16.063,31.526 23.947,48.068 7.807,16.561 15.591,33.643 20.636,53.145 1.001,5.054 2.223,9.961 2.945,15.161 l 0.64,8.041 c 0.16,2.552 0.462,5.703 0.416,7.583 0.05,8.511 0.352,17.338 0.659,26.188 l 1.811,53.593 c 0.906,35.953 1.001,72.189 -1.857,108.76 -1.459,18.281 -3.654,36.657 -7.331,55.112 -3.709,18.436 -8.727,37.06 -17.764,55.331 -2.063,4.583 -4.967,9.056 -7.633,13.52 -3.096,4.386 -6.124,8.777 -10.025,12.843 l -2.79,3.087 -3.201,2.859 c -2.214,1.843 -4.148,3.897 -6.691,5.452 -2.401,1.61 -4.944,3.357 -7.295,4.752 l -6.545,3.38 -6.554,3.362 -6.6,2.849 c -4.404,1.843 -8.791,3.906 -13.245,5.378 l -13.332,4.766 -13.451,4.038 c -4.464,1.436 -8.997,2.483 -13.52,3.595 -4.523,1.075 -9.028,2.305 -13.579,3.238 -9.125,1.674 -18.18,3.833 -27.382,4.958 l -13.762,1.994 c -4.601,0.567 -9.216,0.919 -13.826,1.386 -4.619,0.38 -9.216,1.002 -13.849,1.18 l -13.89,0.608 c -37.032,1.294 -74.398,-1.646 -110.9,-9.957 -9.042,-2.438 -18.135,-4.706 -27.126,-7.318 -8.859,-3.142 -17.814,-5.996 -26.564,-9.417 l -12.943,-5.671 -6.463,-2.849 c -2.15,-0.938 -4.276,-1.829 -6.655,-3.197 -9.344,-4.692 -18.189,-11.086 -25.978,-18.706 -15.738,-15.18 -26.001,-36.525 -28.301,-57.929 -2.548,-21.455 1.39,-42.635 9.394,-61.611 8.082,-18.994 20.531,-35.953 36.3,-49.504 15.77,-13.533 35.45,-23.074 56.356,-26.861 l -15.129,17.375 v 0 c 0.43,-46.783 1.294,-94.143 0.471,-140.185 -0.114,-5.735 -0.402,-11.338 -0.722,-16.602 l -0.329,-3.508 c -0.05,-0.485 -0.11,-1.39 -0.146,-1.537 -0.028,0.151 0.01,0.311 0.105,0.453 0.055,0.201 0.324,0.133 0.361,0.471 0.064,0.306 0.21,0.585 0.416,0.814 l -1.299,-1.679 c -2.74,-3.32 -6.915,-7.514 -10.803,-11.457 l -12.431,-12.239 c -16.881,-16.483 -33.781,-33.648 -49.916,-51.549 -16.227,-17.837 -31.484,-36.717 -45.69,-56.475 -14.187,-19.758 -27.35,-40.444 -38.258,-62.475 -10.949,-21.98 -19.767,-45.191 -25.617,-69.189 -5.717,-24.002 -8.53,-48.814 -6.952,-73.292 0.325,-5.072 4.698,-8.919 9.77,-8.585 4.395,0.279 7.871,3.613 8.502,7.798 l 0.01,0.059 c 6.819,45.237 23.056,87.474 45.333,126.693 22.287,39.26 50.447,75.437 81.858,108.97 15.605,16.918 32.134,32.971 48.979,49.354 l 12.77,12.513 c 4.367,4.455 8.589,8.534 13.405,14.256 0.604,0.709 1.326,1.692 1.976,2.538 0.7,0.961 1.23,1.587 2.044,2.831 0.924,1.51 1.793,3.078 2.57,4.665 0.833,1.596 1.075,3.096 1.551,4.693 0.411,1.578 0.768,3.174 1.061,4.766 0.206,1.299 0.215,1.875 0.325,2.849 l 0.512,5.287 c 0.412,6.481 0.604,12.651 0.686,18.688 0.402,24.199 -0.133,47.762 -0.91,71.462 -0.768,23.673 -1.628,47.236 -3.06,70.895 v 0.01 c -0.302,8.727 -6.668,15.811 -14.91,17.343 l -0.215,0.037 c -14.164,2.634 -27.688,9.023 -38.98,18.706 -11.242,9.664 -20.476,22.141 -26.326,35.962 -5.836,13.789 -8.425,28.836 -6.746,42.841 1.583,14.064 7.784,26.65 17.64,36.273 4.948,4.807 10.656,9.079 17.26,12.353 1.464,0.896 3.449,1.733 5.388,2.57 l 5.767,2.525 11.535,5.081 c 7.83,3.055 15.884,5.589 23.81,8.438 8.109,2.342 16.323,4.377 24.473,6.609 33.04,7.519 67.319,10.254 101.474,9.056 l 12.815,-0.563 c 4.267,-0.146 8.516,-0.741 12.779,-1.088 4.253,-0.435 8.521,-0.746 12.765,-1.267 l 12.692,-1.848 c 8.502,-1.02 16.803,-3.042 25.205,-4.555 4.176,-0.855 8.269,-1.99 12.413,-2.968 4.13,-1.015 8.287,-1.967 12.303,-3.27 l 12.156,-3.636 11.832,-4.24 c 4.016,-1.313 7.693,-3.092 11.507,-4.674 l 5.676,-2.433 5.328,-2.753 5.342,-2.735 c 1.459,-0.896 2.552,-1.742 3.883,-2.561 1.34,-0.686 2.401,-2.026 3.636,-2.991 l 1.816,-1.555 1.656,-1.898 c 2.337,-2.337 4.322,-5.337 6.412,-8.191 1.829,-3.211 3.901,-6.183 5.47,-9.755 6.833,-13.703 11.375,-29.751 14.64,-46.216 3.289,-16.497 5.36,-33.565 6.732,-50.794 2.703,-34.517 2.653,-69.669 1.756,-104.946 l -1.802,-53.255 c -0.311,-8.96 -0.622,-17.947 -0.681,-27.25 0.041,-2.584 -0.251,-3.865 -0.357,-5.758 l -0.38,-5.278 c -0.512,-3.608 -1.5,-7.368 -2.163,-11.059 -3.86,-15.07 -10.757,-30.675 -18.167,-46.285 -7.441,-15.632 -15.742,-31.397 -23.728,-47.615 -8.04,-16.149 -15.856,-32.774 -22.635,-50.099 -7.03,-17.165 -12.513,-35.372 -16.575,-54.014 l -2.584,-14.16 c -0.823,-4.729 -1.038,-9.609 -1.573,-14.411 -0.48,-4.798 -0.961,-9.595 -0.919,-14.773 -0.01,-4.981 0.119,-9.838 0.425,-14.503 1.116,-18.775 3.307,-36.442 5.182,-54.16 3.888,-35.304 7.126,-70.173 7.926,-105.032 0.389,-17.416 0.206,-34.796 -0.594,-52.107 -0.855,-17.306 -2.506,-34.521 -4.766,-51.622 -2.337,-17.087 -5.63,-33.986 -9.504,-50.73 -4.212,-16.639 -8.905,-33.158 -14.8,-49.235 -11.562,-32.248 -27.098,-62.928 -45.677,-91.641 l -0.123,-0.187 c -5.488,-8.489 -3.064,-19.813 5.42,-25.301 8.483,-5.49 19.807,-3.071 25.295,5.409"
   id="path98" />&#10;			</g>&#10;			<g
   id="g100">&#10;				<path
   style="fill:#650000"
   d="m 1241.215,3137.35 c -11.96,9.801 -21.642,21.972 -28.023,35.569 -6.389,13.574 -9.44,28.53 -8.859,42.982 0.526,14.425 4.93,28.388 12.747,38.862 7.771,10.542 18.615,17.279 30.981,19.58 9.948,1.852 16.515,11.425 14.663,21.377 -1.852,9.952 -11.42,16.515 -21.377,14.663 -0.59,-0.11 -1.171,-0.251 -1.743,-0.411 l -0.558,-0.165 c -10.053,-2.927 -19.776,-7.752 -28.141,-14.251 -8.393,-6.472 -15.381,-14.53 -20.645,-23.307 -10.592,-17.645 -14.379,-37.686 -13.369,-56.671 1.015,-19.054 6.728,-37.412 16.108,-53.392 9.376,-16.003 22.438,-29.495 37.412,-39.598 4.189,-2.831 9.879,-1.724 12.71,2.47 2.657,3.938 1.839,9.207 -1.756,12.175 z"
   id="path99" />&#10;			</g>&#10;			<g
   id="g101">&#10;				<path
   style="fill:#650000"
   d="m 1138.904,3117.564 c -12.751,5.699 -23.202,15.294 -30.615,27.03 -7.473,11.713 -12.047,25.425 -13.904,39.356 -1.871,13.885 -1.12,28.238 2.662,40.691 1.88,6.193 4.569,11.836 7.807,16.168 3.302,4.299 7.011,6.892 10.547,8.155 9.536,3.403 14.512,13.899 11.109,23.435 -3.403,9.536 -13.894,14.507 -23.43,11.109 -0.649,-0.233 -1.272,-0.494 -1.875,-0.787 l -0.567,-0.274 c -10.89,-5.319 -19.127,-13.954 -24.478,-22.841 -5.328,-8.973 -8.388,-18.276 -10.226,-27.418 -3.554,-18.331 -2.47,-36.282 1.5,-53.397 4.025,-17.078 11.283,-33.483 22.25,-47.492 10.844,-14.013 25.855,-25.264 42.731,-30.84 4.802,-1.587 9.979,1.02 11.567,5.822 1.482,4.491 -0.7,9.307 -4.917,11.21 z"
   id="path100" />&#10;			</g>&#10;			<g
   id="g102">&#10;				<path
   style="fill:#650000"
   d="m 1283.505,3062.6 c -10.849,-0.874 -22.278,-1.276 -33.433,-1.313 -11.21,-0.06 -22.411,0.306 -33.533,1.015 -11.128,0.663 -22.177,1.798 -33.09,3.334 -10.94,1.418 -21.651,3.641 -32.221,5.991 l -0.412,0.087 c -9.893,2.2 -19.689,-4.043 -21.889,-13.931 -2.195,-9.893 4.038,-19.689 13.936,-21.889 0.759,-0.169 1.628,-0.293 2.387,-0.366 12.047,-1.047 24.034,-1.875 35.939,-1.825 11.905,-0.078 23.737,0.293 35.486,1.157 11.754,0.823 23.43,1.999 35.034,3.618 11.663,1.61 23.019,3.517 34.787,6.074 4.939,1.075 8.077,5.946 7.002,10.894 -0.988,4.532 -5.177,7.547 -9.682,7.181 z"
   id="path101" />&#10;			</g>&#10;			<g
   id="g103">&#10;				<path
   style="fill:#650000"
   d="m 1916.28,3219.291 c 4.569,14.635 7.482,29.01 9.147,44.135 1.605,15.038 1.678,30.593 -1.349,46.486 -2.932,15.765 -9.993,32.395 -22.845,45.443 -6.385,6.499 -14.128,11.599 -22.191,15.5 -8.118,4.062 -16.579,6.097 -24.99,7.899 -9.915,2.136 -19.676,-4.176 -21.811,-14.087 -2.127,-9.915 4.18,-19.676 14.096,-21.802 0.86,-0.188 1.72,-0.311 2.575,-0.375 l 0.494,-0.023 c 11.672,-0.75 22.269,-3.787 30.68,-10.272 8.338,-6.531 14.85,-16.597 18.656,-28.677 3.883,-12.015 5.626,-25.461 5.808,-39.09 0.197,-13.556 -0.97,-27.766 -3.394,-40.998 l -0.073,-0.393 c -0.777,-4.258 2.04,-8.342 6.302,-9.124 3.941,-0.724 7.733,1.646 8.895,5.378"
   id="path102" />&#10;			</g>&#10;			<g
   id="g104">&#10;				<path
   style="fill:#650000"
   d="m 1729.671,3193.224 c -4.171,4.514 -8.521,10.208 -12.093,15.806 -3.641,5.68 -6.842,11.603 -9.476,17.686 -5.301,12.161 -8.237,24.985 -8.466,37.554 -0.183,12.586 2.41,24.88 7.336,36.323 4.976,11.443 12.015,22.109 20.485,31.869 6.636,7.647 5.822,19.223 -1.825,25.864 -7.647,6.641 -19.227,5.822 -25.868,-1.825 -0.467,-0.544 -0.901,-1.102 -1.294,-1.683 l -0.169,-0.256 c -8.923,-13.222 -16.323,-27.913 -20.956,-43.682 -4.61,-15.756 -6.019,-32.665 -3.75,-48.828 2.287,-16.181 7.99,-31.439 15.911,-44.895 3.956,-6.741 8.452,-13.067 13.359,-18.999 4.999,-5.991 10.057,-11.315 16.401,-16.666 3.307,-2.79 8.246,-2.374 11.036,0.933 2.58,3.055 2.42,7.505 -0.229,10.364 z"
   id="path103" />&#10;			</g>&#10;			<g
   id="g105">&#10;				<path
   style="fill:#650000"
   d="m 2814.217,3175.81 c 6.197,14.155 10.762,28.233 14.128,43.22 3.275,14.91 5.09,30.542 3.604,46.948 -0.741,8.182 -2.589,16.602 -5.873,24.834 -3.275,8.219 -8.177,16.223 -14.594,23.032 -6.353,6.929 -14.306,12.088 -22.397,16.058 -8.177,4.134 -16.611,6.243 -24.999,8.15 -9.883,2.246 -19.717,-3.947 -21.967,-13.835 -2.245,-9.884 3.947,-19.717 13.835,-21.967 0.828,-0.188 1.66,-0.315 2.483,-0.384 l 0.526,-0.041 c 11.928,-0.965 22.781,-4.038 30.785,-10.597 8.004,-6.494 13.703,-16.808 16.364,-29.184 2.676,-12.33 2.941,-26.01 1.587,-39.69 -1.335,-13.625 -4.13,-27.743 -8.058,-40.76 l -0.11,-0.38 c -1.248,-4.148 1.098,-8.521 5.246,-9.769 3.837,-1.155 7.876,0.779 9.44,4.365"
   id="path104" />&#10;			</g>&#10;			<g
   id="g106">&#10;				<path
   style="fill:#650000"
   d="m 2638.245,3161.875 c -3.924,4.537 -8.018,10.313 -11.292,15.962 -3.352,5.726 -6.252,11.686 -8.566,17.796 -4.665,12.207 -6.906,24.986 -6.536,37.439 0.119,6.234 1.002,12.395 2.47,18.395 1.363,6.014 3.494,11.859 6.046,17.521 5.173,11.311 12.258,21.862 20.682,31.549 6.646,7.643 5.84,19.223 -1.802,25.873 -7.643,6.641 -19.223,5.831 -25.868,-1.811 -0.476,-0.549 -0.915,-1.116 -1.317,-1.701 l -0.169,-0.261 c -8.768,-13.016 -16.113,-27.373 -20.938,-42.763 -2.374,-7.693 -4.171,-15.624 -4.994,-23.696 -0.924,-8.036 -1.047,-16.177 -0.22,-24.176 1.523,-16.021 6.375,-31.398 13.638,-45.068 3.613,-6.856 7.807,-13.309 12.445,-19.374 4.72,-6.138 9.527,-11.58 15.678,-17.11 3.22,-2.891 8.173,-2.621 11.059,0.594 2.667,2.968 2.644,7.414 0.101,10.354 z"
   id="path105" />&#10;			</g>&#10;			<g
   id="g107">&#10;				<path
   style="fill:#650000"
   d="m 1837.039,3137.979 c -4.711,-0.928 -10.524,-1.724 -15.934,-2.241 -5.502,-0.567 -11.073,-0.892 -16.639,-1.134 -11.151,-0.439 -22.356,-0.261 -33.533,0.274 -11.178,0.563 -22.342,1.615 -33.456,2.977 -5.552,0.636 -11.1,1.564 -16.63,2.328 l -16.552,2.858 -0.499,0.092 c -9.989,1.724 -19.483,-4.976 -21.208,-14.96 -1.724,-9.984 4.971,-19.479 14.956,-21.203 0.773,-0.137 1.646,-0.219 2.41,-0.256 l 17.865,-0.695 c 5.973,-0.037 11.914,-0.233 17.878,-0.133 11.919,0.123 23.828,0.576 35.711,1.555 11.887,1.002 23.737,2.387 35.523,4.427 5.895,1.047 11.768,2.177 17.627,3.581 5.959,1.413 11.484,2.849 17.874,5.049 4.775,1.642 7.309,6.847 5.667,11.617 -1.505,4.372 -6.001,6.874 -10.414,5.991 z"
   id="path106" />&#10;			</g>&#10;			<g
   id="g108">&#10;				<path
   style="fill:#650000"
   d="m 2726.255,3113.602 c -10.707,-0.887 -21.921,-1.335 -32.88,-1.45 -11.018,-0.11 -22.003,0.156 -32.898,0.782 -21.752,1.303 -43.275,4.281 -63.015,9.957 l -0.064,0.018 c -9.733,2.799 -19.891,-2.822 -22.694,-12.554 -2.799,-9.733 2.822,-19.895 12.554,-22.694 0.787,-0.224 1.678,-0.412 2.456,-0.526 24.299,-3.499 47.885,-3.362 71.041,-1.642 11.576,0.91 23.046,2.196 34.435,3.86 11.434,1.692 22.58,3.649 34.073,6.206 4.94,1.093 8.054,5.982 6.956,10.922 -1.006,4.528 -5.2,7.524 -9.696,7.144 z"
   id="path107" />&#10;			</g>&#10;			<g
   id="g109">&#10;				<path
   style="fill:#650000"
   d="m 2426.172,2560.068 c 0.01,3.714 107.744,17.462 180.51,-13.451 87.754,-37.289 114.372,-149.447 110.283,-155.36 -3.998,-5.79 -46.738,68.041 -122.508,111.701 -81.41,46.907 -168.313,46.372 -168.285,57.11"
   id="path108" />&#10;			</g>&#10;		</g>&#10;	</g>&#10;</svg>
