<?xml version="1.0" standalone="no"?>
<!DOCTYPE svg PUBLIC "-//W3C//DTD SVG 20010904//EN"
 "http://www.w3.org/TR/2001/REC-SVG-20010904/DTD/svg10.dtd">
<svg version="1.0" xmlns="http://www.w3.org/2000/svg"
 width="375.000000pt" height="375.000000pt" viewBox="0 0 375.000000 375.000000"
 preserveAspectRatio="xMidYMid meet">
<metadata>
Created by potrace 1.14, written by Peter Selinger 2001-2017
</metadata>
<g transform="translate(0.000000,375.000000) scale(0.100000,-0.100000)"
fill="#000000" stroke="none">
<path d="M2650 2354 c-107 -29 -211 -113 -260 -210 -14 -27 -25 -50 -26 -51 0
-2 -32 13 -70 32 -312 154 -696 154 -1006 -1 -37 -19 -69 -34 -72 -34 -2 0
-15 19 -29 43 -37 63 -118 134 -195 170 -61 29 -76 32 -162 32 -117 0 -192
-25 -275 -93 -148 -121 -198 -333 -117 -505 36 -78 104 -155 167 -188 25 -13
45 -27 45 -32 0 -4 -16 -39 -35 -78 -43 -83 -89 -218 -110 -319 -91 -433 92
-787 515 -999 52 -26 111 -53 130 -60 l35 -12 -45 -24 -45 -24 725 0 725 0
-47 27 c-27 15 -48 30 -48 33 0 4 43 27 96 53 375 181 572 480 551 836 -11
171 -47 306 -130 484 -37 79 -48 111 -39 114 7 2 41 23 75 46 112 75 176 188
185 327 18 289 -255 509 -538 433z m262 -86 c120 -55 198 -171 204 -302 3 -65
2 -67 -6 -24 -21 118 -102 227 -202 273 l-52 24 -12 -27 c-6 -15 -23 -33 -38
-40 -60 -27 -157 -6 -171 38 -4 11 -11 18 -16 15 -14 -9 -11 31 4 43 48 40
202 39 289 0z m-2002 -9 c71 -15 81 -38 37 -83 -45 -44 -102 -55 -154 -29 -21
10 -42 28 -48 41 -12 28 -15 28 -76 -3 -99 -51 -171 -151 -189 -263 l-9 -57 3
75 c9 219 211 367 436 319z m971 -89 c129 -12 232 -38 347 -88 468 -202 825
-743 798 -1212 -7 -130 -23 -189 -81 -308 -124 -250 -426 -439 -823 -514 -169
-32 -495 -32 -663 0 -307 58 -582 198 -731 373 -183 214 -225 512 -118 831
166 495 607 872 1072 917 46 5 85 9 88 10 3 0 53 -4 111 -9z m926 -161 c72
-27 105 -99 77 -168 -16 -42 -65 -81 -100 -81 -30 0 -144 119 -144 151 0 33
34 77 74 95 38 16 57 17 93 3z m-1934 -33 c35 -15 63 -42 69 -67 2 -9 -30 -51
-74 -98 l-77 -82 -31 16 c-65 33 -88 116 -48 175 24 36 78 70 111 70 10 0 32
-6 50 -14z"/>
<path d="M1184 1672 c-333 -115 -511 -636 -298 -871 59 -66 105 -86 200 -86
73 0 87 3 157 38 136 67 248 205 305 374 22 67 26 95 26 198 0 103 -3 129 -23
179 -60 151 -213 221 -367 168z m197 -288 c45 -48 23 -154 -33 -154 -35 0 -68
45 -68 92 0 82 52 114 101 62z m-175 -279 c29 -45 -4 -86 -40 -49 -19 18 -21
45 -4 62 17 17 26 15 44 -13z"/>
<path d="M2240 1681 c-81 -26 -136 -78 -177 -166 -26 -56 -28 -69 -28 -190 0
-141 10 -185 67 -299 158 -317 494 -417 646 -192 51 76 65 141 60 270 -4 88
-11 126 -32 184 -86 232 -262 391 -441 398 -38 2 -81 0 -95 -5z m73 -288 c25
-28 30 -67 14 -106 -29 -69 -97 -72 -115 -5 -22 84 52 165 101 111z m147 -295
c0 -30 -19 -58 -39 -58 -24 0 -33 23 -21 54 15 39 60 43 60 4z"/>
<path d="M1700 1119 c-35 -14 -60 -39 -60 -60 0 -26 59 -89 97 -106 31 -12 33
-17 33 -61 0 -56 -24 -85 -85 -106 -75 -26 -118 7 -113 85 3 41 1 44 -23 47
-28 3 -49 -28 -49 -74 0 -38 34 -97 68 -116 26 -16 30 -24 35 -77 11 -123 87
-210 191 -219 114 -9 202 81 222 226 5 42 14 60 44 90 43 43 58 97 38 140 -9
19 -21 27 -38 27 -22 0 -25 -4 -26 -40 -1 -70 -3 -76 -37 -90 -42 -17 -77 -10
-121 27 -32 26 -36 34 -36 78 0 46 2 51 33 66 101 51 121 127 42 160 -39 16
-177 18 -215 3z"/>
</g>
</svg>
