<svg width="400" height="400" viewBox="0 0 400 400" fill="none" xmlns="http://www.w3.org/2000/svg">
<path d="M64.6963 301.825L64.9111 300.585L63.9569 299.764C27.6446 268.515 5.09807 225.074 5.09807 176.923C5.09807 82.2784 92.0974 5.11272 200.001 5.11272C307.889 5.11272 394.904 82.2785 394.904 176.923C394.904 271.568 307.904 348.749 200.001 348.749C185.826 348.749 171.888 347.469 158.585 344.942L157.852 344.803L157.184 345.134C150.264 348.564 123.981 361.342 93.6923 370.873C78.5469 375.639 62.463 379.572 47.3374 381.133C32.7276 382.642 19.2 381.917 8.30944 377.754C8.37073 377.119 8.63647 376.341 9.2246 375.359C10.161 373.796 11.7499 371.999 13.9515 369.896C16.1365 367.809 18.804 365.532 21.8142 362.986C22.0985 362.745 22.3857 362.502 22.6756 362.257C25.4382 359.922 28.4446 357.38 31.526 354.622C45.125 342.448 60.556 325.737 64.6963 301.825Z" fill="white" stroke="black" stroke-width="4.44028"/>
</svg>
