<svg width="74" height="74" viewBox="0 0 74 74" fill="none" xmlns="http://www.w3.org/2000/svg">
<circle cx="37" cy="37" r="37" fill="#363636" fill-opacity="0.4"/>
<path d="M40.504 49.136H43.896C44.8347 49.136 45.5813 49.3067 46.136 49.648C46.6907 49.9893 46.968 50.6507 46.968 51.632C46.968 52.3147 46.776 52.8907 46.392 53.36C46.0507 53.7867 45.6027 54 45.048 54H32.952C32.44 54 31.9067 53.9787 31.352 53.936C30.84 53.8933 30.3707 53.808 29.944 53.68C29.56 53.5093 29.2187 53.2747 28.92 52.976C28.664 52.6773 28.536 52.2507 28.536 51.696C28.536 50.8853 28.856 50.3093 29.496 49.968C30.136 49.584 31.0107 49.3493 32.12 49.264C32.8027 49.1787 33.3787 49.0507 33.848 48.88C34.36 48.7093 34.6373 48.3893 34.68 47.92C34.7227 47.4507 34.744 46.8533 34.744 46.128C34.7867 45.4027 34.808 44.6773 34.808 43.952C34.8507 43.184 34.872 42.48 34.872 41.84C34.9147 41.2 34.936 40.7093 34.936 40.368C34.936 38.9173 34.9147 37.6587 34.872 36.592C34.8293 35.4827 34.7653 34.224 34.68 32.816C34.6373 32.2187 34.5307 31.728 34.36 31.344C34.232 30.9173 33.9333 30.704 33.464 30.704C33.336 30.704 33.0587 30.7253 32.632 30.768C32.2053 30.768 31.7573 30.768 31.288 30.768C30.8187 30.768 30.3707 30.7893 29.944 30.832C29.5173 30.832 29.24 30.832 29.112 30.832C28.3867 30.832 27.8747 30.64 27.576 30.256C27.2773 29.8293 27.128 29.3173 27.128 28.72C27.128 27.8667 27.4907 27.2907 28.216 26.992C28.984 26.6933 30.328 26.48 32.248 26.352C33.4853 26.2667 34.7013 26.2027 35.896 26.16C37.0907 26.1173 38.0507 26.096 38.776 26.096C39.416 26.096 39.864 26.3093 40.12 26.736C40.376 27.12 40.504 27.6533 40.504 28.336V49.136ZM32.888 16.88C32.888 16.496 32.9733 16.048 33.144 15.536C33.3147 15.024 33.5707 14.5333 33.912 14.064C34.2533 13.5947 34.7013 13.2107 35.256 12.912C35.8107 12.5707 36.472 12.4 37.24 12.4C38.3067 12.4 39.224 12.784 39.992 13.552C40.76 14.2773 41.144 15.3013 41.144 16.624C41.144 17.52 40.9947 18.2667 40.696 18.864C40.44 19.4613 40.0773 19.952 39.608 20.336C39.1813 20.72 38.712 20.9973 38.2 21.168C37.688 21.3387 37.2187 21.424 36.792 21.424C35.6827 21.424 34.744 20.9973 33.976 20.144C33.2507 19.248 32.888 18.16 32.888 16.88Z" fill="white" fill-opacity="0.8"/>
</svg>
