<svg width="74" height="74" viewBox="0 0 74 74" fill="none" xmlns="http://www.w3.org/2000/svg">
<circle cx="37" cy="37" r="37" fill="#363636" fill-opacity="0.4"/>
<g opacity="0.8">
<path d="M32.8334 51.5833V41.1667H41.1667V51.5833C41.1667 52.7292 42.1042 53.6667 43.2501 53.6667H49.5001C50.6459 53.6667 51.5834 52.7292 51.5834 51.5833V37H55.1251C56.0834 37 56.5417 35.8125 55.8126 35.1875L38.3959 19.5C37.6042 18.7917 36.3959 18.7917 35.6042 19.5L18.1876 35.1875C17.4792 35.8125 17.9167 37 18.8751 37H22.4167V51.5833C22.4167 52.7292 23.3542 53.6667 24.5001 53.6667H30.7501C31.8959 53.6667 32.8334 52.7292 32.8334 51.5833Z" fill="white"/>
</g>
</svg>
